<?xml version="1.0" encoding="utf-8"?>
<!-- Generator: Adobe Illustrator 16.0.0, SVG Export Plug-In . SVG Version: 6.00 Build 0)  -->
<!DOCTYPE svg PUBLIC "-//W3C//DTD SVG 1.1//EN" "http://www.w3.org/Graphics/SVG/1.1/DTD/svg11.dtd">
<svg version="1.1" id="Layer_1" xmlns="http://www.w3.org/2000/svg" xmlns:xlink="http://www.w3.org/1999/xlink" x="0px" y="0px"
	 width="512px" height="512px" viewBox="0 0 512 512" enable-background="new 0 0 512 512" xml:space="preserve">
<g>
	<g>
		<g>
			<path fill="#A2256E" d="M162.133,256h34.133c4.719,0,8.533-3.823,8.533-8.533s-3.814-8.533-8.533-8.533h-34.133
				c-4.719,0-8.533,3.823-8.533,8.533S157.414,256,162.133,256z"/>
			<path fill="#A2256E" d="M128,204.8c4.719,0,8.533-3.823,8.533-8.533s-3.814-8.533-8.533-8.533H93.867
				c-4.719,0-8.533,3.823-8.533,8.533v68.267c0,4.71,3.814,8.532,8.533,8.532H128c4.719,0,8.533-3.822,8.533-8.532
				s-3.814-8.533-8.533-8.533h-25.6v-17.067H128c4.719,0,8.533-3.823,8.533-8.533s-3.814-8.533-8.533-8.533h-25.6V204.8H128z"/>
			<path fill="#A2256E" d="M256,409.6c-4.719,0-8.533,3.823-8.533,8.533V440.2l-57.233,57.232c-3.336,3.337-3.336,8.73,0,12.066
				c1.664,1.664,3.849,2.5,6.033,2.5c2.185,0,4.369-0.836,6.033-2.5l59.733-59.733c1.596-1.604,2.5-3.771,2.5-6.032v-25.601
				C264.533,413.423,260.719,409.6,256,409.6z"/>
			<path fill="#A2256E" d="M287.633,463.3c-3.337-3.337-8.73-3.337-12.066,0c-3.336,3.336-3.336,8.73,0,12.066L309.7,509.5
				c1.664,1.664,3.849,2.5,6.032,2.5c2.186,0,4.369-0.836,6.033-2.5c3.338-3.336,3.338-8.73,0-12.066L287.633,463.3z"/>
			<path fill="#A2256E" d="M503.467,17.067H264.533V8.533C264.533,3.823,260.719,0,256,0s-8.533,3.823-8.533,8.533v8.533H8.533
				C3.814,17.067,0,20.89,0,25.6v34.133c0,4.71,3.814,8.533,8.533,8.533h443.732c4.72,0,8.533-3.823,8.533-8.533
				s-3.813-8.533-8.533-8.533h-435.2V34.133h477.867V51.2H486.4c-4.72,0-8.533,3.823-8.533,8.533v290.133
				c0,14.114-11.486,25.6-25.601,25.6H59.733c-14.114,0-25.6-11.485-25.6-25.6v-256c0-4.71-3.814-8.533-8.533-8.533
				c-4.719,0-8.533,3.823-8.533,8.533v256c0,23.525,19.14,42.667,42.667,42.667h392.533c23.526,0,42.667-19.141,42.667-42.667
				v-281.6h8.533c4.719,0,8.533-3.823,8.533-8.533V25.6C512,20.89,508.186,17.067,503.467,17.067z"/>
			<path fill="#A2256E" d="M426.667,196.267c0-14.114-11.486-25.6-25.6-25.6c-14.114,0-25.601,11.486-25.601,25.6
				c0,4.71,3.814,8.533,8.533,8.533s8.533-3.823,8.533-8.533c0-4.702,3.822-8.533,8.533-8.533c4.71,0,8.532,3.831,8.532,8.508
				c-0.205,2.645-6.86,9.762-13.653,14.532l-17.066,12.8c-2.936,2.21-4.139,6.042-2.97,9.523c1.151,3.49,4.411,5.837,8.09,5.837
				h34.133c4.719,0,8.533-3.823,8.533-8.533s-3.814-8.533-8.533-8.533h-8.516C416.145,216.704,426.667,206.754,426.667,196.267z"/>
			<path fill="#A2256E" d="M332.8,204.8c4.71,0,8.533,3.831,8.533,8.533c0,4.71,3.813,8.533,8.533,8.533
				c4.719,0,8.532-3.823,8.532-8.533c0-14.114-11.485-25.6-25.6-25.6c-14.113,0-25.6,11.486-25.6,25.6v34.133
				c0,14.114,11.486,25.601,25.6,25.601c14.114,0,25.6-11.486,25.6-25.601c0-4.71-3.813-8.533-8.532-8.533
				c-4.72,0-8.533,3.823-8.533,8.533c0,4.702-3.823,8.533-8.533,8.533s-8.532-3.831-8.532-8.533v-34.133
				C324.268,208.631,328.09,204.8,332.8,204.8z"/>
			<path fill="#A2256E" d="M281.6,273.066c4.719,0,8.533-3.822,8.533-8.532v-68.267c0-3.678-2.347-6.929-5.837-8.098
				c-3.489-1.152-7.313,0.051-9.522,2.978L256,216.183l-18.773-25.037c-2.202-2.935-6.025-4.139-9.523-2.978
				c-3.49,1.169-5.837,4.42-5.837,8.098v68.267c0,4.71,3.814,8.533,8.533,8.533c4.719,0,8.533-3.823,8.533-8.533v-42.667
				l10.24,13.653c3.217,4.301,10.437,4.301,13.653,0l10.24-13.653v42.667C273.066,269.244,276.881,273.066,281.6,273.066z"/>
			<path fill="#A2256E" d="M162.133,221.867h34.133c4.719,0,8.533-3.823,8.533-8.533s-3.814-8.533-8.533-8.533h-34.133
				c-4.719,0-8.533,3.823-8.533,8.533S157.414,221.867,162.133,221.867z"/>
		</g>
	</g>
</g>
</svg>
