<?xml version="1.0" encoding="utf-8"?>
<!-- Generator: Adobe Illustrator 16.0.0, SVG Export Plug-In . SVG Version: 6.00 Build 0)  -->
<!DOCTYPE svg PUBLIC "-//W3C//DTD SVG 1.1//EN" "http://www.w3.org/Graphics/SVG/1.1/DTD/svg11.dtd">
<svg version="1.1" id="Layer_1" xmlns="http://www.w3.org/2000/svg" xmlns:xlink="http://www.w3.org/1999/xlink" x="0px" y="0px"
	 width="512px" height="512px" viewBox="0 0 512 512" enable-background="new 0 0 512 512" xml:space="preserve">
<g>
	<g>
		<g>
			<path fill="#A2256E" d="M65.826,170.317c4.523,1.323,9.259-1.28,10.573-5.811c25.276-86.81,106.146-147.439,196.667-147.439
				c14.49,0,28.895,1.51,42.924,4.506c-0.307,12.279,4.992,20.702,8.404,26.112c0.947,1.502,2.236,3.55,2.39,3.831
				c0,30.601-6.255,35.584-6.187,35.601c-13.834,0-36.531,12.356-45.065,28.288c-5.239,9.771-4.813,20.113,1.186,29.124
				c4.113,6.17,7.654,13.03,11.085,19.669c7.254,14.046,15.301,29.628,27.938,29.628c2.671,0,5.555-0.7,8.678-2.261
				c9.95-4.975,17.084-19.123,23.979-32.794c3.037-6.025,7.5-14.865,10.146-17.673c8.661,1.178,12.894,9.011,18.62,21.419
				c4.215,9.131,8.576,18.56,17.143,22.844c14.421,7.211,61.842-0.341,88.047-11.469c3.917-1.664,6.008-5.965,4.898-10.078
				c-17.911-66.219-66.56-121.301-130.15-147.337c-4.359-1.792-9.353,0.299-11.136,4.659c-1.782,4.36,0.308,9.344,4.668,11.127
				c56.329,23.074,99.96,70.818,118.008,128.649c-26.556,9.361-60.638,12.177-66.704,9.182c-3.209-1.604-6.435-8.576-9.276-14.729
				c-5.948-12.885-14.097-30.532-34.901-31.454c-10.752-0.649-16.811,11.725-24.602,27.179c-4.574,9.062-11.477,22.758-16.98,25.464
				c-3.166-0.742-9.455-12.919-13.211-20.19c-3.473-6.724-7.406-14.345-12.049-21.299c-2.518-3.772-2.62-7.356-0.341-11.605
				c5.862-10.94,23.45-19.277,30.021-19.277c15.428,0,23.252-17.715,23.252-52.668c0-4.966-2.551-9.011-5.009-12.928
				c-3.618-5.726-7.347-11.656-5.137-21.777c0.981-4.497-1.783-8.969-6.246-10.095C309.786,2.261,291.482,0,273.066,0
				C175.002,0,87.39,65.69,60.015,159.744C58.692,164.267,61.303,169.003,65.826,170.317z"/>
			<path fill="#A2256E" d="M375.434,226.304c-2.467,0.7-5.838,1.673-6.733,1.741c-11.793,0-19.269,9.131-24.722,15.795
				c-2.082,2.543-5.845,7.108-8.242,7.177c-3.857-1.929-7.91-2.901-12.049-2.901c-10.062,0-18.773,5.982-20.72,14.241
				c-1.374,5.804,0.649,13.748,10.419,18.638c13.858,6.929,28.187,14.089,34.561,20.463c4.386,4.386,11.972,6.903,20.82,6.903
				c13.44,0,31.31-6.528,37.444-24.943c2.423-7.253,8.218-12.8,13.824-18.159c6.502-6.237,12.655-12.117,12.74-20.557
				c0.06-4.984-2.15-9.745-6.555-14.157c-5.999-5.99-14.165-9.037-24.286-9.037C392.227,221.508,382.516,224.282,375.434,226.304z
				 M415.71,244.471c-0.401,1.681-4.651,5.751-7.475,8.456c-6.443,6.161-14.456,13.833-18.21,25.097
				c-4.215,12.629-18.449,13.27-21.258,13.27c-4.975,0-8.098-1.314-8.746-1.895c-8.347-8.346-23.236-15.795-39.006-23.67
				c-0.035-0.018-0.061-0.026-0.095-0.043c1.604-0.658,4.574-0.701,7.185,0.597c2.756,1.382,5.59,2.081,8.405,2.081
				c9.446,0,15.411-7.286,20.669-13.712c3.848-4.685,7.816-9.54,11.52-9.54c3.029,0,6.554-1.007,11.418-2.398
				c6.46-1.843,14.498-4.139,21.819-4.139c5.505,0,9.498,1.323,12.212,4.036C415.334,243.806,415.659,244.471,415.71,244.471z"/>
			<path fill="#A2256E" d="M492.817,191.164c-0.649-4.676-5.019-7.927-9.617-7.287c-4.668,0.649-7.937,4.958-7.287,9.626
				c1.297,9.378,1.954,18.927,1.954,28.365c0,112.11-90.539,203.46-202.342,204.783c-30.345-19.379-58.786-43.119-46.114-72.679
				c22.75-53.103,1.579-72.892-7.467-81.356l-1.698-1.613c-2.586-2.577-5.504-4.335-8.073-5.879
				c-6.246-3.746-7.927-4.753-4.574-14.814c2.219-6.682,5.171-9.796,8.576-13.406c7.893-8.346,13.926-16.648,13.926-40.781
				c0-14.046-7.125-25.25-19.55-30.737c-14.089-6.229-32.905-4.028-42.854,5.001c-6.212,5.649-8.303,13.338-5.726,21.077
				c6.084,18.219-7.817,44.553-33.792,64.034c-6.878,5.154-8.926,2.79-10.155,1.382c-7.62-8.781-7.031-33.758-0.777-40.004
				c4.19-4.19,5.436-9.54,3.328-14.31c-6.912-15.676-51.004-14.464-59.75-14.054c-4.156,0.196-7.569,3.354-8.081,7.484
				c-1.084,8.823-1.544,16.563-1.544,25.873c0,102.314,69.282,190.882,168.474,215.39c4.557,1.135,9.199-1.664,10.325-6.238
				c1.135-4.573-1.664-9.198-6.238-10.324C132.207,398.071,68.267,316.305,68.267,221.867c0-5.922,0.205-11.153,0.657-16.486
				c14.438-0.017,26.701,1.655,32.956,3.567c-9.788,15.283-8.713,45.329,3.251,59.118c8.576,9.883,21.018,10.291,33.289,1.084
				c32.785-24.584,48.384-57.208,39.74-83.081c-0.273-0.845-0.546-1.638,1.024-3.063c4.489-4.079,15.915-5.803,24.465-2.014
				c6.315,2.79,9.387,7.74,9.387,15.13c0,19.26-3.883,23.373-9.259,29.056c-3.985,4.224-8.951,9.472-12.373,19.738
				c-7.671,23.049,4.634,30.438,11.989,34.851c1.903,1.135,3.695,2.209,4.787,3.301c0.623,0.623,1.331,1.289,2.108,2.015
				c7.509,7.015,21.47,20.079,3.439,62.157c-20.446,47.71,32.273,80.973,54.784,95.181c1.365,0.854,2.944,1.314,4.558,1.314
				c122.334,0,221.866-99.533,221.866-221.867C494.933,211.644,494.225,201.318,492.817,191.164z"/>
			<path fill="#A2256E" d="M415.667,413.602c-41.438,30.874-90.752,47.198-142.601,47.198
				c-131.747,0-238.934-107.179-238.934-238.933c0-4.71-3.823-8.533-8.533-8.533s-8.533,3.823-8.533,8.533
				c0,138.3,110.251,251.255,247.467,255.787v25.813c0,4.71,3.823,8.533,8.532,8.533c4.711,0,8.533-3.823,8.533-8.533v-25.94
				c52.403-1.698,102.145-18.851,144.266-50.236c3.779-2.816,4.557-8.158,1.74-11.947
				C424.789,411.571,419.456,410.786,415.667,413.602z"/>
			<path fill="#A2256E" d="M279.596,345.745c-10.65,0-23.143,12.254-27.7,23.253c-3.558,8.593-2.5,16.605,2.91,22.016
				c5.094,5.095,12.655,8.021,20.745,8.021s15.65-2.927,20.754-8.021c5.665-5.666,7.049-13.995,3.891-23.44
				c-2.125-6.383-6.34-13.133-11.256-18.058C286.498,347.085,283.18,345.745,279.596,345.745z M284.236,378.94
				c-3.788,3.788-13.635,3.686-17.322,0.094c-0.119-0.367-0.111-2.5,2.15-6.238c2.943-4.854,7.1-8.286,9.353-9.506
				c2.423,2.876,4.522,6.477,5.589,9.677C284.954,375.791,285.039,378.146,284.236,378.94z"/>
		</g>
	</g>
</g>
</svg>
