<?xml version="1.0" encoding="utf-8"?>
<!-- Generator: Adobe Illustrator 16.0.0, SVG Export Plug-In . SVG Version: 6.00 Build 0)  -->
<!DOCTYPE svg PUBLIC "-//W3C//DTD SVG 1.1//EN" "http://www.w3.org/Graphics/SVG/1.1/DTD/svg11.dtd">
<svg version="1.1" id="Layer_1" xmlns="http://www.w3.org/2000/svg" xmlns:xlink="http://www.w3.org/1999/xlink" x="0px" y="0px"
	 width="512px" height="512px" viewBox="0 0 512 512" enable-background="new 0 0 512 512" xml:space="preserve">
<g>
	<path fill="#A2256E" d="M25.798,440.161c0,0.397,0,0.794,0.397,1.588c0,0.396,0.397,1.19,0.397,1.588
		c0,0.396,0.397,0.793,0.397,1.587c0.397,0.397,0.397,0.794,0.794,1.588c0.396,0.396,0.396,0.794,0.793,1.19
		c0.397,0.397,0.794,0.794,0.794,1.191c0.397,0.396,0.794,0.793,1.19,1.19l0.397,0.396c0,0,0.397,0,0.397,0.397
		c1.191,1.19,2.778,1.984,4.366,2.381c0.397,0,0.397,0,0.794,0.397c1.588,0.396,3.175,0.793,4.763,0.793l0,0h428.255l0,0
		c1.587,0,3.175-0.396,4.763-0.793c0.396,0,0.396,0,0.793-0.397c1.588-0.794,3.176-1.588,4.366-2.381c0,0,0.397,0,0.397-0.397
		l0.396-0.396c0.396-0.397,0.794-0.794,1.19-1.19c0.397-0.397,0.794-0.794,0.794-1.191c0.397-0.396,0.397-0.794,0.794-1.19
		s0.396-0.794,0.794-1.588c0.396-0.396,0.396-0.794,0.396-1.587c0-0.397,0.397-1.191,0.397-1.588c0-0.397,0.396-0.794,0.396-1.588
		c0-0.396,0-1.19,0-1.588c0-0.396,0-0.396,0-0.793V74.22c0-9.129-7.145-16.273-16.272-16.273H41.674
		c-9.128,0-16.273,7.144-16.273,16.273v363.56c0,0.396,0,0.396,0,0.793C25.798,438.971,25.798,439.367,25.798,440.161
		L25.798,440.161z M76.602,421.507l120.26-143.677l50.009,34.927c2.778,1.984,5.954,2.778,9.129,2.778
		c3.176,0,6.351-0.794,9.129-2.778l50.01-34.927l120.26,143.677H76.602L76.602,421.507z M454.053,392.931L341.73,259.176
		l111.926-78.19v211.945H454.053z M58.344,90.493h395.708v51.2L256.397,279.417L58.344,141.693V90.493L58.344,90.493z
		 M58.344,180.986l111.925,78.189L58.344,392.931V180.986L58.344,180.986z"/>
</g>
</svg>
