<?xml version="1.0" encoding="utf-8"?>
<!-- Generator: Adobe Illustrator 16.0.0, SVG Export Plug-In . SVG Version: 6.00 Build 0)  -->
<!DOCTYPE svg PUBLIC "-//W3C//DTD SVG 1.1//EN" "http://www.w3.org/Graphics/SVG/1.1/DTD/svg11.dtd">
<svg version="1.1" id="Layer_1" xmlns="http://www.w3.org/2000/svg" xmlns:xlink="http://www.w3.org/1999/xlink" x="0px" y="0px"
	 width="512px" height="512px" viewBox="0 0 512 512" enable-background="new 0 0 512 512" xml:space="preserve">
<g>
	<g>
		<g>
			<path fill="#A2256E" d="M375.451,315.733c0-4.71-3.823-8.533-8.533-8.533h-51.2c-4.71,0-8.532,3.823-8.532,8.533
				s3.822,8.532,8.532,8.532h51.2C371.628,324.267,375.451,320.444,375.451,315.733z"/>
			<path fill="#A2256E" d="M341.316,93.867V51.2c0-4.71-3.822-8.533-8.532-8.533s-8.533,3.823-8.533,8.533v42.667
				c0,23.526,19.14,42.667,42.667,42.667h76.8v162.133c0,4.71,3.823,8.533,8.533,8.533s8.533-3.823,8.533-8.533V128
				c0-4.71-3.823-8.533-8.533-8.533h-85.333C352.803,119.467,341.316,107.981,341.316,93.867z"/>
			<path fill="#A2256E" d="M366.917,204.8H298.65c-4.711,0-8.533,3.823-8.533,8.533s3.822,8.533,8.533,8.533h68.267
				c4.71,0,8.533-3.823,8.533-8.533C375.451,208.623,371.628,204.8,366.917,204.8z"/>
			<path fill="#A2256E" d="M273.051,213.333c0-4.71-3.822-8.533-8.533-8.533h-51.2c-4.71,0-8.533,3.823-8.533,8.533
				s3.823,8.533,8.533,8.533h51.2C269.229,221.867,273.051,218.044,273.051,213.333z"/>
			<path fill="#A2256E" d="M213.317,256c-4.71,0-8.533,3.823-8.533,8.533s3.823,8.533,8.533,8.533h17.067
				c4.71,0,8.533-3.823,8.533-8.533S235.094,256,230.384,256H213.317L213.317,256z"/>
			<path fill="#A2256E" d="M213.317,170.667h85.333c4.709,0,8.533-3.823,8.533-8.533c0-4.71-3.824-8.533-8.533-8.533h-85.333
				c-4.71,0-8.533,3.823-8.533,8.533S208.607,170.667,213.317,170.667z"/>
			<path fill="#A2256E" d="M264.518,273.066h85.332c4.711,0,8.533-3.822,8.533-8.532s-3.822-8.533-8.533-8.533h-85.332
				c-4.711,0-8.534,3.823-8.534,8.533S259.807,273.066,264.518,273.066z"/>
			<path fill="#A2256E" d="M315.717,358.4c-4.71,0-8.533,3.822-8.533,8.532s3.823,8.533,8.533,8.533h17.067
				c4.71,0,8.532-3.823,8.532-8.533s-3.822-8.532-8.532-8.532H315.717z"/>
			<path fill="#A2256E" d="M281.584,307.2h-68.267c-4.71,0-8.533,3.823-8.533,8.533s3.823,8.532,8.533,8.532h68.267
				c4.71,0,8.533-3.822,8.533-8.532S286.294,307.2,281.584,307.2z"/>
			<path fill="#A2256E" d="M281.584,358.4h-68.267c-4.71,0-8.533,3.822-8.533,8.532s3.823,8.533,8.533,8.533h68.267
				c4.71,0,8.533-3.823,8.533-8.533S286.294,358.4,281.584,358.4z"/>
			<path fill="#A2256E" d="M484.754,351.497l-17.066-17.067c-13.116-13.115-33.102-13.09-46.199,0L309.684,446.234
				c-1.596,1.596-2.5,3.771-2.5,6.032v51.2c0,4.71,3.823,8.533,8.533,8.533h51.2c2.261,0,4.437-0.904,6.033-2.5l111.804-111.804
				C498.348,384.102,498.348,365.099,484.754,351.497z M410.454,369.596l13.534,13.534l-74.139,74.138l-13.533-13.533
				L410.454,369.596z M324.251,494.933v-39.134l39.134,39.134H324.251z M375.451,482.867l-13.534-13.534l74.138-74.138
				l13.534,13.533L375.451,482.867z M472.688,385.63l-11.033,11.034L422.52,357.53l11.034-11.034c6.741-6.733,15.292-6.768,22.067,0
				l17.066,17.066C479.591,370.475,479.591,378.726,472.688,385.63z"/>
			<path fill="#A2256E" d="M281.584,494.933H59.717c-14.114,0-25.6-11.485-25.6-25.6V42.667c0-14.114,11.486-25.6,25.6-25.6h269.534
				L412.084,99.9c3.336,3.337,8.73,3.337,12.066,0c3.337-3.336,3.337-8.73,0-12.066L338.816,2.5c-1.596-1.604-3.771-2.5-6.032-2.5
				H59.717C36.191,0,17.051,19.14,17.051,42.667v426.667c0,23.526,19.14,42.667,42.667,42.667h221.867
				c4.71,0,8.533-3.823,8.533-8.533S286.294,494.933,281.584,494.933z"/>
			<path fill="#A2256E" d="M281.584,409.6h-68.267c-4.71,0-8.533,3.823-8.533,8.533s3.823,8.533,8.533,8.533h68.267
				c4.71,0,8.533-3.823,8.533-8.533S286.294,409.6,281.584,409.6z"/>
			<path fill="#A2256E" d="M170.651,162.133c0-4.71-3.823-8.533-8.533-8.533h-51.2c-4.71,0-8.533,3.823-8.533,8.533v51.2
				c0,4.71,3.823,8.533,8.533,8.533h51.2c4.71,0,8.533-3.823,8.533-8.533V162.133z M153.584,204.8h-34.133v-34.133h34.133V204.8z"/>
			<path fill="#A2256E" d="M110.917,426.667h51.2c4.71,0,8.533-3.823,8.533-8.533v-51.2c0-4.71-3.823-8.532-8.533-8.532h-51.2
				c-4.71,0-8.533,3.822-8.533,8.532v51.2C102.384,422.844,106.207,426.667,110.917,426.667z M119.451,375.467h34.133V409.6h-34.133
				V375.467L119.451,375.467z"/>
			<path fill="#A2256E" d="M121.951,321.766c1.604,1.604,3.78,2.5,6.033,2.5c0.282,0,0.555-0.008,0.845-0.043
				c2.543-0.247,4.838-1.63,6.255-3.755l34.133-51.2c2.611-3.925,1.553-9.225-2.364-11.836c-3.934-2.62-9.216-1.553-11.836,2.364
				l-28.356,42.539l-9.711-9.702c-3.336-3.337-8.73-3.337-12.066,0c-3.336,3.338-3.337,8.73,0,12.066L121.951,321.766z"/>
		</g>
	</g>
</g>
</svg>
