<?xml version="1.0" encoding="utf-8"?>
<!-- Generator: Adobe Illustrator 16.0.0, SVG Export Plug-In . SVG Version: 6.00 Build 0)  -->
<!DOCTYPE svg PUBLIC "-//W3C//DTD SVG 1.1//EN" "http://www.w3.org/Graphics/SVG/1.1/DTD/svg11.dtd">
<svg version="1.1" id="Layer_1" xmlns="http://www.w3.org/2000/svg" xmlns:xlink="http://www.w3.org/1999/xlink" x="0px" y="0px"
	 width="512px" height="512px" viewBox="0 0 512 512" enable-background="new 0 0 512 512" xml:space="preserve">
<g>
	<g>
		<g>
			<path fill="#A2256E" d="M58.631,42.594l196.269,25.6c0.367,0.043,0.734,0.068,1.101,0.068s0.733-0.026,1.101-0.068
				l186.635-24.346v29.628c-5.35,6.016-17.067,21.026-17.067,37.453c0,18.782,15.31,25.601,25.601,25.601
				s25.601-6.818,25.601-25.601c0-16.427-11.717-31.437-17.067-37.453V34.129c0-1.126-0.239-2.193-0.64-3.183
				c-0.146-0.35-0.394-0.623-0.58-0.947c-0.333-0.597-0.666-1.186-1.126-1.681c-0.3-0.316-0.657-0.529-0.998-0.785
				c-0.486-0.393-0.964-0.768-1.527-1.041c-0.418-0.205-0.862-0.29-1.314-0.418c-0.418-0.128-0.794-0.35-1.245-0.41l-196.269-25.6
				c-0.734-0.085-1.468-0.085-2.203,0l-196.269,25.6c-4.25,0.555-7.432,4.181-7.432,8.465
				C51.198,38.413,54.381,42.041,58.631,42.594z M460.802,110.93c0,6.81-4.617,8.405-8.533,8.533
				c-3.917-0.128-8.533-1.724-8.533-8.533c0-7.083,4.353-14.985,8.533-20.813C456.449,95.946,460.802,103.848,460.802,110.93z
				 M256,17.131l130.296,16.998L256,51.128L125.704,34.129L256,17.131z"/>
			<path fill="#A2256E" d="M307.2,255.998c17.237,0,31.395-12.894,33.665-29.525l31.188-23.381c3.772-2.825,4.54-8.175,1.707-11.947
				c-2.825-3.772-8.175-4.548-11.946-1.707l-21.752,16.316c-3.251-10.402-12.859-18.022-24.329-18.022H281.6
				c-14.113,0-25.6,11.486-25.6,25.6c0-14.114-11.486-25.6-25.6-25.6h-34.133c-11.469,0-21.077,7.62-24.329,18.022l-21.751-16.316
				c-3.763-2.825-9.122-2.057-11.947,1.707c-2.833,3.772-2.065,9.122,1.707,11.947l31.189,23.381
				c2.27,16.631,16.418,29.525,33.665,29.525h17.067c18.825,0,34.133-15.309,34.133-34.133c0,18.825,15.309,34.133,34.133,34.133
				H307.2z M238.933,221.865c0,9.412-7.663,17.067-17.067,17.067h-17.067c-9.412,0-17.067-7.654-17.067-17.067v-8.533
				c0-4.702,3.823-8.533,8.533-8.533h34.133c4.71,0,8.533,3.831,8.533,8.533v8.533H238.933z M273.067,221.865v-8.533
				c0-4.702,3.823-8.533,8.532-8.533h34.134c4.71,0,8.533,3.831,8.533,8.533v8.533c0,9.412-7.654,17.067-17.067,17.067h-17.066
				C280.721,238.931,273.067,231.277,273.067,221.865z"/>
			<path fill="#A2256E" d="M392.186,433.108c-0.162-0.606-0.418-1.152-0.701-1.715c-0.161-0.299-0.195-0.641-0.383-0.93
				c-0.095-0.129-0.23-0.196-0.324-0.324c-0.358-0.47-0.803-0.854-1.264-1.246c-0.41-0.375-0.811-0.742-1.297-1.017
				c-0.145-0.094-0.23-0.229-0.393-0.315l-34.133-17.059c-2.748-1.374-6.009-1.169-8.551,0.529l-51.209,34.133
				c-2.373,1.579-3.797,4.25-3.797,7.101v30.259c-5.078,4.063-17.545,12.407-34.134,12.407c-16.427,0-29.013-8.388-34.133-12.433
				v-30.234c0-2.851-1.425-5.521-3.797-7.101l-51.201-34.133c-2.543-1.698-5.803-1.903-8.55-0.529l-34.133,17.059
				c-0.154,0.077-0.239,0.213-0.375,0.299c-0.512,0.29-0.939,0.674-1.374,1.075c-0.427,0.376-0.853,0.733-1.186,1.178
				c-0.102,0.137-0.256,0.213-0.35,0.351c-0.205,0.307-0.239,0.656-0.401,0.98c-0.265,0.538-0.521,1.058-0.674,1.638
				c-0.137,0.538-0.171,1.051-0.205,1.597c-0.034,0.538-0.06,1.058,0.009,1.604c0.068,0.598,0.265,1.144,0.461,1.707
				c0.119,0.341,0.111,0.7,0.273,1.024c0.077,0.153,0.222,0.247,0.307,0.393c0.282,0.495,0.666,0.913,1.058,1.349
				c0.384,0.427,0.742,0.853,1.186,1.194c0.137,0.103,0.213,0.256,0.35,0.351l51.2,34.133c1.459,0.973,3.106,1.435,4.727,1.435
				c2.756,0,5.47-1.331,7.108-3.798c2.62-3.925,1.562-9.225-2.364-11.836l-38.972-25.975l16.555-8.277l43.281,28.852v29.567
				c0,2.262,0.896,4.438,2.5,6.033c0.802,0.803,19.9,19.567,48.7,19.567c28.801,0,47.898-18.765,48.701-19.567
				c1.596-1.596,2.5-3.771,2.5-6.033v-29.567l43.289-28.852l16.547,8.269l-38.973,25.984c-3.925,2.611-4.982,7.91-2.363,11.836
				c1.638,2.467,4.352,3.798,7.107,3.798c1.621,0,3.268-0.461,4.727-1.435l51.201-34.133c0.137-0.095,0.205-0.239,0.333-0.333
				c0.478-0.358,0.853-0.803,1.254-1.254c0.358-0.428,0.726-0.812,0.998-1.289c0.085-0.154,0.239-0.247,0.315-0.41
				c0.18-0.351,0.18-0.726,0.299-1.084c0.18-0.538,0.367-1.05,0.436-1.613c0.077-0.58,0.051-1.126,0.01-1.698
				C392.348,434.107,392.321,433.62,392.186,433.108z"/>
			<path fill="#A2256E" d="M427.274,404.24c1.34,3.328,4.54,5.359,7.927,5.359c1.059,0,2.125-0.196,3.166-0.614
				c4.378-1.741,6.502-6.707,4.763-11.085c-0.172-0.41-16.462-41.72-16.462-82.168v-68.268c0-72.705-37.266-92.169-38.852-92.962
				c-2.637-1.323-5.787-1.195-8.295,0.367c-2.517,1.562-4.053,4.301-4.053,7.262v34.133c0,32.273-24.695,98.569-33.237,115.652
				c-7.653,15.317-48.154,63.549-86.229,63.549s-78.576-48.23-86.239-63.549c-8.533-17.083-33.229-83.379-33.229-115.652v-34.133
				c0-2.961-1.536-5.7-4.053-7.262s-5.658-1.69-8.294-0.367c-1.587,0.794-38.853,20.258-38.853,92.962v68.268
				c0,40.448-16.29,81.759-16.461,82.168c-1.741,4.378,0.384,9.344,4.762,11.085c4.361,1.741,9.344-0.375,11.093-4.745
				c0.717-1.809,17.672-44.698,17.672-88.509v-68.268c0-34.603,9.02-54.708,17.067-65.767v14.566
				c0,36.625,26.872,106.966,35.029,123.282c10.385,20.77,55.834,72.986,101.505,72.986c45.67,0,91.119-52.217,101.496-72.986
				c8.166-16.316,35.038-86.657,35.038-123.282v-14.549c8.064,11.068,17.067,31.165,17.067,65.75v68.268
				C409.602,359.542,426.558,402.432,427.274,404.24z"/>
			<path fill="#A2256E" d="M275.669,309.604c-0.272,0.247-6.707,6.127-19.669,6.127c-12.774,0-19.209-5.709-19.652-6.118
				c-3.319-3.251-8.67-3.227-11.981,0.085c-3.337,3.337-3.337,8.73,0,12.066c1.126,1.126,11.605,11.034,31.633,11.034
				s30.508-9.907,31.633-11.034c3.295-3.294,3.285-8.567,0.051-11.913C284.434,306.508,279.074,306.414,275.669,309.604z"/>
			<path fill="#A2256E" d="M511.558,500.77c-0.751-2.27-19.371-55.851-91.358-73.848c-4.574-1.16-9.199,1.639-10.342,6.204
				c-1.144,4.574,1.638,9.208,6.212,10.352c62.524,15.633,78.66,60.81,79.31,62.687c1.186,3.576,4.514,5.837,8.09,5.837
				c0.887,0,1.801-0.137,2.697-0.435C510.637,510.071,513.052,505.242,511.558,500.77z"/>
			<path fill="#A2256E" d="M392.534,127.997V68.264c0-4.71-3.813-8.533-8.533-8.533c-4.719,0-8.533,3.823-8.533,8.533v54.212
				c-14.114,5.982-58.778,22.588-119.468,22.588s-105.354-16.606-119.468-22.588V68.264c0-4.71-3.814-8.533-8.533-8.533
				s-8.533,3.823-8.533,8.533v59.733c0,3.234,1.826,6.187,4.719,7.637c2.167,1.075,53.897,26.496,131.815,26.496
				c77.918,0,129.648-25.421,131.814-26.496C390.708,134.184,392.534,131.231,392.534,127.997z"/>
			<path fill="#A2256E" d="M91.801,426.922C19.813,444.92,1.193,498.501,0.442,500.77c-1.493,4.472,0.922,9.302,5.393,10.796
				C6.731,511.864,7.636,512,8.532,512c3.575,0,6.903-2.261,8.09-5.837c0.162-0.469,16.316-46.942,79.31-62.687
				c4.574-1.144,7.356-5.777,6.212-10.352C101,428.561,96.366,425.762,91.801,426.922z"/>
		</g>
	</g>
</g>
</svg>
