<?xml version="1.0" encoding="utf-8"?>
<!-- Generator: Adobe Illustrator 16.0.0, SVG Export Plug-In . SVG Version: 6.00 Build 0)  -->
<!DOCTYPE svg PUBLIC "-//W3C//DTD SVG 1.1//EN" "http://www.w3.org/Graphics/SVG/1.1/DTD/svg11.dtd">
<svg version="1.1" id="Layer_1" xmlns="http://www.w3.org/2000/svg" xmlns:xlink="http://www.w3.org/1999/xlink" x="0px" y="0px"
	 width="512px" height="512px" viewBox="0 0 512 512" enable-background="new 0 0 512 512" xml:space="preserve">
<g>
	<g>
		<g>
			<path fill="#A2256E" d="M50.918,445.739c1.143,0,2.295-0.23,3.405-0.717c27.221-11.854,73.19-18.022,136.678-18.348l6.161,12.339
				c2.116,4.217,7.245,5.939,11.452,3.814c4.215-2.108,5.931-7.229,3.814-11.443l-8.525-17.066c-1.451-2.894-4.403-4.72-7.637-4.72
				c-69.538,0-118.204,6.469-148.762,19.772c-4.318,1.886-6.289,6.912-4.412,11.238C44.493,443.819,47.625,445.739,50.918,445.739z"
				/>
			<path fill="#A2256E" d="M494.933,460.8h-17.066v-42.667c0-2.261-0.905-4.437-2.5-6.033l-51.269-51.26
				c1.604-3.337,2.569-7.031,2.569-10.974c0-14.114-11.486-25.601-25.6-25.601c-14.114,0-25.601,11.486-25.601,25.601
				s11.486,25.6,25.601,25.6c3.941,0,7.629-0.964,10.965-2.56l48.768,48.759V460.8H17.067C7.654,460.8,0,468.454,0,477.867v25.6
				C0,508.177,3.823,512,8.533,512s8.533-3.823,8.533-8.533v-25.6h477.867v25.6c0,4.71,3.814,8.533,8.533,8.533
				s8.533-3.823,8.533-8.533v-25.6C512,468.454,504.337,460.8,494.933,460.8z M401.067,358.4c-4.71,0-8.533-3.831-8.533-8.533
				s3.823-8.533,8.533-8.533s8.532,3.831,8.532,8.533S405.777,358.4,401.067,358.4z"/>
			<path fill="#A2256E" d="M121.83,255.249c6.221,16.196,26.803,68.42,41.737,90.82l1.348,2.039
				c10.957,16.613,29.286,44.424,91.085,44.424c61.79,0,80.128-27.811,91.085-44.424l1.349-2.039
				c14.933-22.4,35.506-74.624,41.736-90.82c11.146-2.773,19.43-12.86,19.43-24.849v-34.133c0-11.127-7.134-20.617-17.066-24.141
				V128c0-33.69-17.741-95.923-83.362-101.931c-0.128-4.028-1.459-7.27-2.944-9.668C297.839,2.842,274.287,0,256,0
				C104.158,0,102.4,143.616,102.4,145.067c0,4.71,3.814,8.525,8.516,8.525h0.017c4.702,0,8.516-3.806,8.533-8.516
				c0.017-5.222,1.937-128.009,136.533-128.009c24.132,0,33.801,5.222,35.712,8.311c0.266,0.435,0.99,1.604-0.684,4.941
				c-1.322,2.645-1.178,5.786,0.375,8.303c1.563,2.509,4.302,4.045,7.263,4.045c75.657,0,76.791,81.86,76.8,85.333v51.2
				c0,4.71,3.814,8.533,8.533,8.533c4.71,0,8.533,3.831,8.533,8.533V230.4c0,4.702-3.823,8.533-8.533,8.533
				c-3.559,0-6.741,2.21-7.996,5.538c-0.247,0.674-25.445,67.644-41.771,92.125l-1.398,2.116
				c-10.223,15.514-24.234,36.753-76.834,36.753c-52.608,0-66.611-21.239-76.834-36.753l-1.399-2.116
				c-16.324-24.481-41.523-91.452-41.779-92.125c-1.246-3.328-4.429-5.538-7.987-5.538c-4.702,0-8.533-3.831-8.533-8.533v-34.133
				c0-2.313,0.922-4.412,2.423-5.948c3.098,6.955,9.421,13.21,20.045,14.268l29.201,21.897C173.414,243.106,187.554,256,204.8,256
				h17.067C240.691,256,256,240.691,256,221.867C256,240.691,271.309,256,290.133,256H307.2c17.237,0,31.394-12.894,33.664-29.525
				l31.188-23.381c3.772-2.825,4.54-8.175,1.707-11.947c-2.824-3.772-8.175-4.548-11.947-1.707l-21.75,16.316
				c-3.252-10.402-12.86-18.022-24.33-18.022H281.6c-14.113,0-25.6,11.486-25.6,25.6c0-14.114-11.486-25.6-25.6-25.6h-34.133
				c-11.46,0-21.069,7.62-24.328,18.022l-16.282-12.211c6.716-16.23,12.8-40.235,14.524-57.088
				c26.897-0.478,104.713-3.763,139.333-25.37c7.851,30.31,33.049,55.817,34.32,57.08c3.336,3.336,8.73,3.336,12.066,0
				c3.336-3.337,3.336-8.73,0-12.066c-0.316-0.316-31.633-31.983-31.633-62.234c0-3.831-2.561-7.202-6.256-8.226
				c-3.678-1.024-7.629,0.546-9.591,3.831c-12.425,20.693-93.022,29.995-146.287,29.995c-4.71,0-8.533,3.823-8.533,8.533
				c0,13.85-6.545,41.515-13.508,58.539c-2.722-1.638-3.49-4.693-3.558-7.339c0-4.71-3.823-8.533-8.533-8.533
				c-14.114,0-25.6,11.486-25.6,25.6V230.4C102.4,242.389,110.686,252.476,121.83,255.249z M273.066,213.333
				c0-4.702,3.824-8.533,8.533-8.533h34.133c4.711,0,8.533,3.831,8.533,8.533v8.533c0,9.412-7.654,17.067-17.066,17.067h-17.067
				c-9.411,0-17.067-7.654-17.067-17.067v-8.533H273.066z M187.733,213.333c0-4.702,3.831-8.533,8.533-8.533H230.4
				c4.702,0,8.533,3.831,8.533,8.533v8.533c0,9.412-7.654,17.067-17.067,17.067H204.8c-9.412,0-17.067-7.654-17.067-17.067V213.333z
				"/>
			<path fill="#A2256E" d="M298.658,307.226c0.009-4.702-3.797-8.532-8.499-8.559c-0.162,0-15.421-0.171-30.345-7.637
				c-2.398-1.195-5.231-1.195-7.629,0c-14.925,7.467-30.191,7.637-30.319,7.637c-4.71,0-8.533,3.823-8.533,8.533
				s3.823,8.533,8.533,8.533c0.725,0,16.845-0.095,34.133-7.654c17.28,7.56,33.408,7.654,34.133,7.654
				C294.835,315.733,298.641,311.927,298.658,307.226z"/>
			<path fill="#A2256E" d="M315.708,409.95c-3.19,0.017-6.118,1.809-7.578,4.659l-8.532,16.708
				c-2.143,4.197-0.47,9.344,3.721,11.485c1.236,0.631,2.568,0.931,3.873,0.931c3.106,0,6.102-1.698,7.613-4.651l6.152-12.066
				c46.643,0.128,84.207,3.618,111.735,10.377c4.591,1.136,9.198-1.672,10.316-6.245c1.126-4.582-1.664-9.199-6.246-10.325
				C406.878,413.474,366.346,409.651,315.708,409.95z"/>
			<path fill="#A2256E" d="M247.467,418.133V435.2c0,4.71,3.823,8.533,8.533,8.533s8.533-3.823,8.533-8.533v-17.067
				c0-4.71-3.823-8.533-8.533-8.533S247.467,413.423,247.467,418.133z"/>
			<path fill="#A2256E" d="M247.467,324.267c-4.71,0-8.533,3.823-8.533,8.533s3.823,8.533,8.533,8.533h17.067
				c4.719,0,8.532-3.823,8.532-8.533s-3.813-8.533-8.532-8.533H247.467z"/>
		</g>
	</g>
</g>
</svg>
