<?xml version="1.0" encoding="utf-8"?>
<!-- Generator: Adobe Illustrator 16.0.0, SVG Export Plug-In . SVG Version: 6.00 Build 0)  -->
<!DOCTYPE svg PUBLIC "-//W3C//DTD SVG 1.1//EN" "http://www.w3.org/Graphics/SVG/1.1/DTD/svg11.dtd">
<svg version="1.1" id="Layer_1" xmlns="http://www.w3.org/2000/svg" xmlns:xlink="http://www.w3.org/1999/xlink" x="0px" y="0px"
	 width="512px" height="512px" viewBox="0 0 512 512" enable-background="new 0 0 512 512" xml:space="preserve">
<g>
	<g>
		<path fill="#A2256E" d="M256,25.401c-101.209,0-183.764,82.555-183.764,184.162c0,12.304,1.19,24.607,3.572,36.515
			c0,0.793,0.397,1.587,0.397,2.778c20.242,90.89,162.729,227.423,168.682,232.98c3.175,3.175,7.145,4.365,11.113,4.365
			s7.938-1.587,11.113-4.365c5.953-5.954,147.646-142.09,167.889-230.996c0-0.794,0.396-1.587,0.396-2.381
			c2.778-12.701,3.969-25.798,3.969-38.896C439.765,107.957,357.209,25.401,256,25.401L256,25.401z M403.646,242.505
			c0,0.794,0,0.397,0,1.191C388.564,309.581,289.736,413.569,256,447.306c-33.736-33.736-132.961-137.725-148.043-205.197
			c0-0.793,0-1.19-0.397-1.984c-1.984-10.319-3.175-20.639-3.175-30.958c0-83.349,67.87-151.616,151.219-151.616
			c83.349,0,151.616,67.87,151.616,151.616C407.219,220.676,406.028,231.789,403.646,242.505L403.646,242.505z"/>
		<path fill="#A2256E" d="M256,128.992c-34.133,0-61.52,27.783-61.52,61.52s27.783,61.52,61.52,61.52s61.52-27.386,61.52-61.52
			S290.133,128.992,256,128.992z M256,219.882c-16.273,0-29.371-13.098-29.371-29.371s13.098-29.371,29.371-29.371
			c16.273,0,29.371,13.098,29.371,29.371S272.273,219.882,256,219.882z"/>
	</g>
</g>
</svg>
