<?xml version="1.0" encoding="utf-8"?>
<!-- Generator: Adobe Illustrator 16.0.0, SVG Export Plug-In . SVG Version: 6.00 Build 0)  -->
<!DOCTYPE svg PUBLIC "-//W3C//DTD SVG 1.1//EN" "http://www.w3.org/Graphics/SVG/1.1/DTD/svg11.dtd">
<svg version="1.1" id="Layer_1" xmlns="http://www.w3.org/2000/svg" xmlns:xlink="http://www.w3.org/1999/xlink" x="0px" y="0px"
	 width="512px" height="512px" viewBox="0 0 512 512" enable-background="new 0 0 512 512" xml:space="preserve">
<g>
	<path fill="#7C017C" d="M146.456,453.656l214.325,32.545c0.794,0,1.588,0,2.381,0c3.97,0,7.542-1.19,10.717-3.969
		c3.572-3.175,5.557-7.541,5.557-12.304V74.22c0-7.938-5.953-14.685-13.892-15.876L151.219,25.798
		c-4.763-0.793-9.526,0.794-13.098,3.572c-3.572,3.175-5.557,7.541-5.557,12.304v395.708
		C132.564,445.718,138.518,452.465,146.456,453.656L146.456,453.656z M165.11,60.726l181.781,27.386v363.163L165.11,423.889V60.726z
		"/>
</g>
</svg>
