<?xml version="1.0" encoding="utf-8"?>
<!-- Generator: Adobe Illustrator 23.0.3, SVG Export Plug-In . SVG Version: 6.00 Build 0)  -->
<svg version="1.1" id="Capa_1" xmlns="http://www.w3.org/2000/svg" xmlns:xlink="http://www.w3.org/1999/xlink" x="0px" y="0px"
	 viewBox="0 0 512 512" style="enable-background:new 0 0 512 512;" xml:space="preserve">
<style type="text/css">
	.st0{fill:#D2D2D2;}
</style>
<path class="st0" d="M385.74,142.74c2.35-2.23,4.16-3.8,5.81-5.53c5.43-5.64,10.68-11.44,16.21-16.98c6.99-7,17.55-7.1,24.9-0.15
	c8.89,8.41,17.66,16.93,26.31,25.58c7.04,7.04,7.19,17.35,0.31,24.58c-11.99,12.58-24.17,24.97-36.24,37.47
	c-12.07,12.49-24.13,24.99-36.08,37.61c-0.95,1-1.34,2.87-1.35,4.33c-0.06,51.56-0.07,103.13-0.04,154.69
	c0,5.82-1.94,10.63-7.11,13.49c-2.45,1.34-5.41,1.83-8.2,2.45c-1.44,0.32-2.99,0.06-4.5,0.06c-77.34,0-154.69,0.01-232.03-0.05
	c-2.65,0-5.39-0.28-7.9-1.06c-6.51-2.02-9.78-7.03-10.13-14.8c-0.07-1.71-0.02-3.43-0.02-5.16c0-80.46,0.02-160.92-0.06-241.37
	c0-4.65,1.53-8.13,4.9-11.31c11.57-10.89,22.95-21.97,34.4-32.97c15.16-14.57,30.24-29.23,45.58-43.59
	c1.86-1.74,5.22-2.65,7.89-2.65c44.04-0.16,88.09-0.11,132.13-0.11c10.09,0,20.19-0.1,30.29,0.01c8.34,0.09,14.71,6.65,14.73,15.09
	c0.05,18.69,0.01,37.39,0.02,56.08C385.55,139.55,385.65,140.67,385.74,142.74z M130.42,405.55c80.3,0,160.28,0,240.27,0
	c0-47.59,0-94.97,0-142.94c-1.06,0.91-1.71,1.39-2.26,1.97c-18.15,18.74-36.36,37.44-54.37,56.33c-3.33,3.49-7.1,5.88-11.56,7.17
	c-18.15,5.24-36.35,10.34-54.53,15.51c-3.68,1.05-7.32,3.03-11,3.08c-22.02,0.3-44.04,0.17-66.07,0.14
	c-4.66-0.01-7.95-3.22-8.17-7.75c-0.26-5.3,2.33-8.59,7.37-8.93c3.74-0.25,7.52-0.15,11.27-0.15c19.85-0.01,39.7,0,59.76,0
	c2.76-9.98,5.54-20.12,8.49-30.8c-1.75,0-3.1,0-4.45,0c-24.6,0-49.2,0-73.81,0c-4.41,0-6.76-1.49-8.05-4.98
	c-2.29-6.23,1.35-11.57,7.95-11.57c26.75-0.01,53.51-0.05,80.25,0.06c2.7,0.01,3.79-0.89,4.87-3.35c1.34-3.06,3.33-5.97,5.57-8.48
	c4.86-5.44,10.07-10.57,15.12-15.84c1.28-1.34,2.54-2.71,3.79-4.07c-0.1-0.27-0.21-0.53-0.31-0.8c-1.23,0-2.46,0-3.69,0
	c-35.02,0-70.05-0.01-105.07,0.02c-3.49,0-6.37-1-8.05-4.21c-1.66-3.2-1.54-6.42,0.52-9.43c2.17-3.16,5.54-3.31,8.91-3.31
	c39.32,0,78.64,0,117.97,0c1.28,0,2.61,0.36,3.84,0.15c1.54-0.26,3.42-0.52,4.42-1.51c8.73-8.74,17.29-17.65,25.87-26.52
	c0.46-0.47,0.71-1.12,1.4-2.2c-2.17,0-3.74,0-5.32,0c-49.63,0-99.27,0.01-148.9-0.02c-1.58,0-3.27-0.05-4.71-0.6
	c-3.75-1.43-5.75-5.48-4.96-9.44c0.8-4.02,4.06-6.49,8.71-6.49c55.33-0.01,110.66-0.01,165.99,0c1.07,0,2.15,0.33,3.19,0.2
	c1.22-0.16,2.76-0.3,3.51-1.07c8.37-8.49,16.66-17.06,24.81-25.76c1.1-1.17,1.87-3.14,1.87-4.74c0.12-23.21,0.09-46.41,0.09-69.62
	c0-1.14,0-2.28,0-3.52c-51.96,0-103.47,0-155.03,0c-0.1,1.02-0.25,1.87-0.25,2.72c0,21.06-0.07,42.11,0.05,63.16
	c0.06,11.58-7.05,19.03-18.59,19.03c-20.85,0-41.68,0-62.53,0c-1.34,0-2.7,0-4.2,0C130.42,246.69,130.42,325.94,130.42,405.55z
	 M257.31,325.67c1.12,0,1.58,0.1,1.96-0.01c13.36-3.91,26.73-7.8,40.06-11.85c1.66-0.5,3.29-1.7,4.5-2.97
	c7.08-7.31,13.98-14.79,21.04-22.13c13.23-13.75,26.52-27.44,39.79-41.16c5.66-5.86,11.3-11.73,16.97-17.57
	c13.87-14.31,27.74-28.62,41.62-42.94c8.29-8.54,16.61-17.06,24.9-25.61c2.15-2.23,2.1-4.17-0.15-6.36
	c-8.15-7.94-16.29-15.86-24.46-23.75c-2.58-2.5-4.23-2.5-6.84,0.12c-2.49,2.5-4.79,5.18-7.24,7.73
	c-12.81,13.27-25.63,26.51-38.46,39.77c-12.37,12.8-24.72,25.6-37.08,38.4c-12.88,13.34-25.78,26.67-38.69,39.98
	c-7.61,7.85-15.31,15.63-22.83,23.58c-1.49,1.58-2.76,3.62-3.43,5.67c-2.7,8.13-5.17,16.35-7.62,24.56
	C259.93,315.81,258.72,320.55,257.31,325.67z M136.5,151.23c0.16,0.37,0.32,0.73,0.48,1.1c1.13,0,2.26,0,3.4,0
	c18.67,0,37.34,0,56.01,0c4.32,0,4.86-0.5,4.86-4.77c0.01-17.92,0.01-35.84,0-53.75c0-1.11-0.15-2.22-0.22-3.32
	c-0.28-0.14-0.57-0.27-0.85-0.41C178.96,110.46,157.73,130.85,136.5,151.23z"/>
<path class="st0" d="M294.45,297.35c-2.26-1.61-4.85-2.82-6.5-4.79c-1.96-2.34-1.96-5.39-0.23-8.12c0.68-1.07,1.5-2.09,2.4-3
	c8.68-8.92,17.39-17.81,26.05-26.74c12.38-12.76,24.74-25.54,37.1-38.31c11.86-12.26,23.73-24.5,35.56-36.78
	c10.32-10.72,20.59-21.51,30.91-32.24c2.26-2.35,4.98-3.15,8.18-2.08c3.45,1.16,5.61,3.61,5.49,7.1c-0.09,2.25-1.03,4.97-2.55,6.58
	c-8.58,9.16-17.47,18.02-26.21,27.01c-13.08,13.45-26.13,26.94-39.17,40.43c-5.75,5.93-11.43,11.91-17.17,17.86
	c-13.19,13.65-26.42,27.26-39.61,40.91c-2.76,2.84-5.25,5.96-8.15,8.65C299.06,295.2,296.96,295.92,294.45,297.35z"/>
</svg>
