<?xml version="1.0" encoding="utf-8"?>
<!-- Generator: Adobe Illustrator 23.0.3, SVG Export Plug-In . SVG Version: 6.00 Build 0)  -->
<svg version="1.1" id="Capa_1" xmlns="http://www.w3.org/2000/svg" xmlns:xlink="http://www.w3.org/1999/xlink" x="0px" y="0px"
	 viewBox="0 0 512 512" style="enable-background:new 0 0 512 512;" xml:space="preserve">
<style type="text/css">
	.st0{fill:#D2D2D2;}
</style>
<path class="st0" d="M260.53,94.21c57.89,0,115.79,0.01,173.68,0c3.47,0,6.71,0.28,7.98,4.31c1.27,4.01-1.32,7.97-5.52,8.16
	c-3.44,0.16-6.92-0.21-10.32,0.17c-1.49,0.17-3.62,1.31-4.1,2.54c-2.67,6.83-5.02,13.8-7.3,20.78c-3.54,10.83-4.22,22.02-3.66,33.29
	c0.57,11.38,3.83,22.15,6.89,33.1c2.72,9.72,7.52,12.99,17.08,11.68c4.54-0.62,7.32,2.48,7.29,6.47c-0.03,3.84-2.83,6.2-7.5,6.2
	c-69.02,0.01-138.04,0-207.06,0c-1.06,0-2.29-0.34-3.13,0.09c-0.93,0.47-2.17,1.73-2.07,2.5c0.12,1.05,1.21,2.25,2.21,2.83
	c0.79,0.46,2.07,0.09,3.12,0.09c80.02,0,160.03-0.01,240.05,0.04c2.05,0,4.7-0.08,5.99,1.08c1.73,1.57,3.49,4.41,3.28,6.51
	c-0.31,3.05-3.12,5.11-6.48,5.32c-2.9,0.18-5.83,0.14-8.74,0.01c-2.91-0.12-4.62,0.6-5.98,3.71c-6.34,14.44-10.13,29.46-10.4,45.18
	c-0.3,17.53,3.68,34.27,11.22,50.12c0.49,1.03,2,2.06,3.14,2.2c2.61,0.32,5.29,0.09,7.94,0.09c5.84,0,9.61,2.51,9.66,6.42
	c0.05,4.13-3.72,6.66-9.96,6.66c-19.34,0-38.68,0-58.03,0c-94.99,0-189.97-0.07-284.96,0.15c-6.85,0.02-11.19-2.21-14.4-7.97
	c-11.4-20.48-17.31-41.94-14.18-65.72c2.33-17.72,8.57-33.84,16.75-49.43c1.58-3.01,3.95-4.53,7.68-4.43
	c9.27,0.25,18.54,0.07,27.82,0.11c1.99,0.01,3.68,0.08,3.7-2.74c0.02-2.78-1.57-2.82-3.62-2.82c-20.14,0.04-40.28-0.28-60.41,0.21
	c-6.11,0.15-9.47-2.61-12.11-7.06c-5.86-9.9-10.64-20.38-13.09-31.63c-2.57-11.8-3.24-23.76-1.45-35.87
	c2.49-16.76,8.3-32.24,16.1-47.16c2.17-4.14,5.04-5.2,9.22-5.19c31.66,0.06,63.32,0.04,94.99,0.04
	C208.07,94.2,234.3,94.2,260.53,94.21z M442.87,340.66c0.19-1.11,0.35-1.41,0.27-1.62c-5.47-13.25-8.84-26.95-9.62-41.33
	c-1.01-18.64,1.79-36.62,8.43-54.02c1.64-4.3,1.76-4.3-2.84-4.3c-70.75,0-141.49,0.02-212.24-0.06c-3.26,0-4.36,0.91-4.31,4.27
	c0.19,11.92,0.13,23.85,0.06,35.77c-0.04,5.77-4.23,8.76-9.55,6.59c-7.79-3.18-15.39-6.83-23.15-10.07
	c-1.35-0.56-3.32-0.59-4.66-0.04c-7.63,3.18-15.06,6.86-22.74,9.89c-6.46,2.54-10.35-0.53-10.36-7.62
	c-0.01-11.66-0.03-23.32,0.03-34.98c0.01-2.3-0.32-3.82-3.16-3.79c-7.68,0.1-15.37-0.06-23.05,0.13c-1.34,0.03-3.31,0.92-3.88,1.99
	c-6.56,12.28-11.41,25.3-13.14,39.09c-2.54,20.23,1.26,39.38,11.96,57.01c1.47,2.42,3.01,3.13,5.67,3.13
	c104.13-0.06,208.26-0.05,312.39-0.05C440.25,340.66,441.53,340.66,442.87,340.66z M408.88,107.03c-2.07-0.13-3.47-0.29-4.86-0.29
	c-102.41-0.01-204.82-0.01-307.22-0.01c-1.85,0-3.79-0.32-5.54,0.1c-1.4,0.33-3.13,1.27-3.78,2.45
	c-8.41,15.22-13.42,31.39-13.82,48.94c-0.37,16.14,3.51,31.09,11.37,45.12c1.92,3.42,4.28,4.95,8.5,4.89
	c18.01-0.28,36.03-0.23,54.05-0.03c3.83,0.04,4.69-1.25,4.65-4.79c-0.16-15.1-0.15-30.21,0-45.31c0.03-3.16-0.92-4.2-4.05-4.1
	c-5.56,0.19-11.13,0.13-16.69,0.02c-3.67-0.07-6.82-1.92-7.26-5.48c-0.26-2.1,1.46-4.84,3.05-6.62c0.95-1.07,3.37-1.12,5.12-1.13
	c30.74-0.06,61.47-0.04,92.21-0.04c34.84,0,69.69-0.01,104.53,0.01c3.83,0,7.61,3.24,7.69,6.48c0.08,2.95-3.58,6.43-7.19,6.8
	c-1.05,0.11-2.12,0.03-3.18,0.03c-33.12,0-66.24,0.04-99.36-0.07c-3.39-0.01-4.59,0.78-4.55,4.41c0.2,15.1,0.16,30.21,0.03,45.31
	c-0.03,3.16,0.72,4.46,4.17,4.46c59.22-0.08,118.44-0.06,177.66-0.09c1.31,0,2.63-0.41,4.17-0.67
	C394.88,173.73,395.13,140.59,408.88,107.03z M208.9,270.29c0.18-1.65,0.36-2.54,0.36-3.43c0.01-36.39-0.02-72.79,0.06-109.18
	c0.01-2.8-0.89-3.68-3.63-3.66c-12.17,0.1-24.35,0.13-36.53-0.01c-3.08-0.04-3.72,1.14-3.72,3.98c0.08,36.13,0.05,72.26,0.07,108.39
	c0,1.19,0.29,2.37,0.49,3.94c5.28-2.49,10.05-4.4,14.48-6.91c4.67-2.65,8.95-2.77,13.67-0.17
	C198.71,265.73,203.55,267.75,208.9,270.29z"/>
<path class="st0" d="M249.24,359.73c58.03,0,116.06,0.02,174.09-0.05c3.36,0,5.94,0.67,7.56,3.82c1.64,3.2,0.54,7.23-2.95,8.03
	c-3.79,0.88-7.83,0.99-11.75,0.91c-3.15-0.07-4.77,1.09-5.96,3.92c-7.32,17.41-11.61,35.46-10.03,54.39
	c1.17,14.09,4.56,27.75,10.81,40.61c1.05,2.16,2.29,2.57,4.26,2.56c3.31-0.03,6.63-0.08,9.94,0.02c3.41,0.11,6.47,3.1,6.54,6.21
	c0.07,3.06-2.53,5.77-6.03,6.17c-1.44,0.16-2.91,0.11-4.37,0.11c-114.6,0-229.21-0.06-343.81,0.16c-6.45,0.01-10.13-2.44-12.93-7.59
	c-6.91-12.71-12.85-25.74-13.9-40.46c-0.43-6.04-1.96-12.21-1.14-18.07c1.47-10.62,3.73-21.23,6.79-31.51
	c2.38-7.98,6.54-15.41,9.8-23.13c1.78-4.21,4.51-6.19,9.38-6.18C133.45,359.77,191.35,359.73,249.24,359.73z M397.86,372.53
	c-2.43,0-3.98,0-5.53,0c-76.3,0-152.6,0-228.91,0c-27.29,0-54.58,0.01-81.87-0.02c-2.65,0-4.57,0.3-5.97,3.26
	c-4.93,10.39-9.11,20.94-11.33,32.31c-4.26,21.82-0.75,42.23,10.08,61.53c1.59,2.84,3.31,4.4,7.04,4.4
	c103.86-0.13,207.71-0.1,311.57-0.11c1.4,0,2.79-0.16,4.73-0.28C384.1,439.92,383.94,406.68,397.86,372.53z"/>
</svg>
