<?xml version="1.0" encoding="utf-8"?>
<!-- Generator: Adobe Illustrator 23.0.3, SVG Export Plug-In . SVG Version: 6.00 Build 0)  -->
<svg version="1.1" id="Capa_1" xmlns="http://www.w3.org/2000/svg" xmlns:xlink="http://www.w3.org/1999/xlink" x="0px" y="0px"
	 viewBox="0 0 512 512" style="enable-background:new 0 0 512 512;" xml:space="preserve">
<style type="text/css">
	.st0{fill:#D2D2D2;}
</style>
<path class="st0" d="M2.58,351.26c50.76,0,100.67,0,150.81,0c0-23.12,0-45.53,0-68.08c-10.55,3.59-20.77,7.38-31.18,10.53
	c-14.66,4.43-29.42,8.57-44.25,12.42c-5.24,1.36-10.83,1.32-16.21,2.22c-7.12,1.19-14.15,2.86-21.28,3.96
	c-7.39,1.15-14.84,1.93-22.28,2.74c-4.29,0.47-8.62,0.58-12.92,1.03c-2.69,0.28-3.97-1.06-4.16-3.41
	c-0.47-5.74-0.75-11.51-1.11-17.45c4.13-0.52,8.04-1.06,11.96-1.51c14.08-1.63,28.28-2.58,42.22-5.04
	c15.86-2.8,31.72-6.18,47.16-10.71c16.65-4.89,32.85-11.37,49.17-17.35c1.32-0.48,2.98-2.46,2.98-3.75
	c0.14-63.33,0.11-126.66,0.08-190c0-0.44-0.23-0.87-0.74-2.68c-2.92,3.51-5.51,6.25-7.67,9.29c-5.4,7.63-10.67,15.36-15.84,23.14
	c-1.6,2.4-3.07,2.82-5.26,0.89c-0.82-0.73-1.83-1.26-2.81-1.77c-6.9-3.61-7-4.14-2.48-10.49c6.79-9.54,13.47-19.15,20.28-28.68
	c7.2-10.06,14.5-20.05,22.27-30.79c15.76,22.07,31.27,43.8,47.02,65.86c-3.65,2.29-6.97,4.69-10.6,6.45
	c-0.94,0.45-3.39-0.66-4.2-1.75c-7.18-9.69-14.17-19.52-21.11-29.38c-0.6-0.85-0.4-2.25-0.57-3.4c-0.77,0.64-1.55,1.28-2.32,1.92
	c0,62.04,0,124.09,0,186.76c1.64-0.65,3.1-1.13,4.46-1.79c4.44-2.15,8.72-4.67,13.3-6.47c4.29-1.68,5.53-4.35,5.26-8.79
	c-0.95-15.44,13.8-27.55,28.05-28.01c6.14-0.2,12.01,0.34,17.62,3.36c4.22,2.27,7.31-1.43,10.15-3.54
	c11.56-8.59,22.99-17.38,34.19-26.43c6.68-5.39,12.95-11.31,19.19-17.22c0.96-0.91,1.43-3.31,0.97-4.62
	c-7.29-20.54,11.22-38.82,27.96-36.9c8.44,0.97,13.39-2.73,17.9-8.99c11.96-16.61,24.17-33.04,36.51-49.85
	c5.83,3.11,12.34,6.59,19.38,10.35c-4.15,6.16-7.94,12.3-12.24,18.07c-10.26,13.76-20.83,27.29-31.06,41.08
	c-0.97,1.31-1.12,3.98-0.52,5.59c7.19,19.23-4.4,34.6-21.53,38.38c-4.69,1.04-9.84-0.18-14.77-0.02c-2.02,0.07-4.57,0.43-5.93,1.69
	c-18.58,17.24-38.18,33.26-58.99,47.67c-4.64,3.21-5.79,6.1-5.85,11.11c-0.11,9.45-5.23,16.18-13.09,20.98
	c-10.24,6.26-20.81,6.33-31.74,1.82c-1.47-0.61-3.71-0.4-5.2,0.28c-10.8,4.96-21.53,10.07-32.18,15.33
	c-1.07,0.53-2.12,2.37-2.13,3.6c-0.13,23.79-0.09,47.59-0.09,71.65c100.14,0,200.03,0,299.92,0c0.16-0.42,0.33-0.84,0.49-1.26
	c-12.5-7.36-25-14.73-38.21-22.51c2.35-3.43,4.7-7.04,7.32-10.44c0.42-0.54,2.35-0.55,3.16-0.07C465,330.03,488.1,343.84,512,358.11
	c-24.54,14.48-48.61,28.67-72.74,42.9c-2.73-4.17-5.15-7.86-7.73-11.8c12.86-7.7,25.56-15.3,38.26-22.91
	c-0.15-0.4-0.31-0.8-0.46-1.2c-99.89,0-199.78,0-300.04,0c0,38.8,0,77.62,0,116.78c-5.26,0-10.18,0-15.46,0
	c0-38.82,0-77.63,0-116.98c-50.62,0-100.89,0-151.95,0C2.13,360.14,2.34,355.94,2.58,351.26z"/>
<path class="st0" d="M129.79,397.77c-1.04,18.49-6.47,32.78-17.95,44.48c-6.72,6.85-15.76,8.42-23.27,4.61
	c-5.14-2.6-7.03-7.54-7.65-12.41c-1.25-9.77,0.56-19.32,4.5-28.43c3.65-8.45,8.51-16,15.45-22.17c7.1-6.31,21.02-7.41,25.58,1.96
	C128.52,390.07,129.07,395.07,129.79,397.77z M90.52,439.81c1.36,1.98,2.41,5.07,3.9,5.29c2.25,0.35,4.95-1.03,7.17-2.21
	c1.1-0.59,1.86-2.27,2.28-3.62c4.93-15.68,9.85-31.37,14.58-47.11c1.12-3.72,2.07-8.28-3.06-9.74c-5.07-1.44-6.93,2.83-8.69,6.56
	c-0.27,0.58-0.5,1.19-0.72,1.79c-2.53,7.15-5.26,14.23-7.53,21.47C95.67,421.14,93.28,430.16,90.52,439.81z"/>
<path class="st0" d="M82.39,125.35c7.52-2.1,13.7-3.82,21.02-5.86c1.48,4.3,3.37,8.56,4.36,13.02c0.89,4.02,0.86,8.25,1.13,12.39
	c0.43,6.7,0.77,13.41,1.22,21.5c2.91-3.27,5.34-5.59,7.28-8.26c3.34-4.61,6.42-9.42,9.52-14.19c2.7-4.15,1.81-8.95-1.73-11.7
	c-2.24-1.74-5.42-3.46-3.73-7.14c1.53-3.3,3.83-6.2,8.1-5.31c3.91,0.82,8.05,2.96,7.28,7.24c-1.04,5.75-2.92,11.78-6.08,16.63
	c-10.61,16.32-21.85,32.3-36.48,45.34c-4.53,4.03-10.41,6.64-15.89,9.49c-4.33,2.25-7.93,0.12-10.06-3.63
	c-1.92-3.39-0.82-6.83,2.36-9.12c3.81-2.75,7.76-1.63,10.61,1.34c3.63,3.78,7.06,3.31,10.45,0.46c1.36-1.14,2.48-3.44,2.46-5.2
	c-0.12-14.82-0.44-29.64-0.9-44.46C93.1,130.49,90.96,128.03,82.39,125.35z"/>
<path class="st0" d="M357.52,389.7c6.4-0.9,12.77-2.19,19.2-2.57c4.87-0.29,4.68,4.72,6.23,7.73c1.24,2.41,2.04,5.07,3.44,7.37
	c0.31,0.51,2.82,0.5,3.45-0.13c3.6-3.65,6.67-7.85,10.43-11.31c3.34-3.07,7.45-6.03,12.26-3.62c1.97,0.99,4.03,3.76,4.23,5.9
	c0.31,3.34-2.28,5.38-5.83,5.58c-0.81,0.04-1.7,0.2-2.41-0.06c-8.41-3.17-13.98,0.61-17.82,7.64c-1.05,1.92-1.42,4.84-0.82,6.93
	c1.57,5.42,3.6,10.75,5.93,15.89c2.69,5.94,7.61,6.09,11.51,0.76c0.97-1.33,2.44-2.29,3.68-3.42c0.36,0.37,0.71,0.74,1.07,1.1
	c-3.1,3.39-6.13,6.83-9.3,10.16c-6.01,6.3-17.32,4.71-20.81-3.3c-1.2-2.76-2.74-5.4-3.67-8.24c-1.24-3.79-2.35-2.59-4.39-0.54
	c-4.64,4.68-9.31,9.39-14.48,13.43c-2.13,1.67-5.57,2.23-8.43,2.28c-4.19,0.08-6.53-3.13-5.88-6.97c0.55-3.27,5.12-6.1,8.45-5.2
	c0.45,0.12,0.85,0.48,1.3,0.58c3.09,0.73,6.16,3.72,9.35,0.7c3.78-3.58,7.31-7.44,10.89-11.23c0.26-0.27,0.26-1.01,0.09-1.41
	c-2.47-5.71-0.88-12.75-5.77-17.67c-0.43-0.43-0.79-1.03-0.95-1.61C366.98,393.11,363.48,390.5,357.52,389.7z"/>
<path class="st0" d="M331.96,284.95c-1.13,0-2.28-0.13-3.39,0.02c-3.89,0.52-5.05-1.17-4.94-4.97c0.31-11.11-1.24-9.59,9.45-9.56
	c2.14,0.01,5.92,0.63,6.12,1.56c0.8,3.81,1.06,7.97,0.24,11.72c-0.23,1.06-4.81,1.17-7.4,1.72
	C332.02,285.28,331.99,285.11,331.96,284.95z"/>
<path class="st0" d="M331.18,327.83c3.47,0.89,7.45,0.99,7.8,2.17c1.04,3.51,0.81,7.46,0.71,11.22c-0.02,0.7-1.68,1.87-2.65,1.94
	c-3.37,0.24-6.78,0.29-10.14-0.02c-1.05-0.1-2.73-1.45-2.83-2.37c-0.35-3.16-1.13-6.9,0.18-9.44
	C325.27,329.33,329.12,328.78,331.18,327.83z"/>
<path class="st0" d="M331.91,314.11c-1.29,0-2.6-0.12-3.88,0.02c-3.5,0.39-4.68-1.28-4.36-4.55c0.13-1.28,0.13-2.59,0-3.87
	c-0.45-4.58,1.52-6.66,6.15-6.19c1.12,0.11,2.26,0.02,3.39,0.02c6.67,0.01,8.14,1.92,6.62,8.63c-0.14,0.6-0.68,1.32-0.49,1.75
	c2.01,4.69-1.3,4.16-4.04,4.2C334.17,314.12,333.04,314.11,331.91,314.11z"/>
<path class="st0" d="M216.03,286.89c0-5.12,0-9.58,0-14.57c1.93,0,3.65,0,5.38,0c10.87-0.01,11.42,0.54,9.83,11.48
	c-0.17,1.16-2.03,2.83-3.24,2.95C224.18,287.13,220.3,286.89,216.03,286.89z"/>
<path class="st0" d="M216.06,315.64c0-4.77,0-9.24,0-14.16c4.22,0,8.24-0.24,12.2,0.15c1.13,0.11,2.08,2.06,3.1,3.18
	c0.08,0.09,0.01,0.31,0.02,0.48C232.01,316.79,231.19,317.36,216.06,315.64z"/>
<path class="st0" d="M331.74,197.48c-1.46,0-2.92-0.07-4.37,0.02c-2.73,0.17-3.73-1.08-3.7-3.76c0.12-11.81-0.97-9.76,9.23-9.81
	c2.3-0.01,6.39,0.3,6.58,1.16c0.79,3.51,1.19,7.56,0.07,10.85c-0.48,1.42-5,1.46-7.69,2.13
	C331.83,197.88,331.78,197.68,331.74,197.48z"/>
<path class="st0" d="M338.96,226.63c-4.09,0-8.12,0.25-12.09-0.16c-1.15-0.12-2.72-2.01-3-3.33c-0.5-2.32-0.84-5.1-0.02-7.21
	c2.37-6.08,7.8-1.77,11.73-2.8c2.17-0.57,4.87-0.37,4.61,3.12C339.93,219.57,339.42,222.86,338.96,226.63z"/>
<path class="st0" d="M332.17,256.73c-8.09-0.94-10.82-4.7-8.29-12.37c0.33-1.01,2.38-2.1,3.6-2.06c4.18,0.16,8.75-0.02,12.3,1.7
	c1.28,0.62,1.01,6.7-0.28,9.5C338.68,255.32,334.73,255.71,332.17,256.73z"/>
<path class="st0" d="M216,343.87c0-4.39,0-8.52,0-12.95c5.08,0,10,0,15.06,0c0,4.11,0.16,8.21-0.15,12.27
	c-0.06,0.74-2.05,1.94-3.11,1.9C224.01,344.95,220.24,344.35,216,343.87z"/>
</svg>
