<?xml version="1.0" encoding="utf-8"?>
<!-- Generator: Adobe Illustrator 23.0.3, SVG Export Plug-In . SVG Version: 6.00 Build 0)  -->
<svg version="1.1" id="Capa_1" xmlns="http://www.w3.org/2000/svg" xmlns:xlink="http://www.w3.org/1999/xlink" x="0px" y="0px"
	 viewBox="0 0 512 512" style="enable-background:new 0 0 512 512;" xml:space="preserve">
<style type="text/css">
	.st0{fill:#D2D2D2;}
</style>
<path class="st0" d="M256.84,32.91c55.66,0.39,105.82,17,148.85,52.6c38.34,31.72,62.89,72.15,70.33,121.74
	c7.24,48.27-3.35,93.04-30.88,133.28c-34.28,50.09-82.5,79.36-141.43,91.52c-39.89,8.23-79.31,5.66-118.06-6.81
	c-2.98-0.96-5.16-0.59-7.83,1.05c-18.71,11.45-37.22,23.28-56.43,33.83c-17.27,9.48-35.96,15.34-56.02,15.09
	c-7.74-0.09-14.34-2.94-18.02-10.34c-2.46-4.95-3.01-9.84,0.48-14.78c8.2-11.57,16.5-23.09,24.22-34.97
	c7.01-10.8,12.48-22.41,14.6-35.31c1.39-8.45,0.17-16.18-5.58-23.07c-21.04-25.21-35.39-53.75-41.74-86.08
	c-7.25-36.9-4.13-72.97,10.88-107.47C78.01,99.28,127.64,60.54,193.57,41.35C214.16,35.36,235.33,32.76,256.84,32.91z M66.64,456.35
	c2.12,0,3.29,0.04,4.45-0.01c1.04-0.05,2.08-0.17,3.12-0.31c12.72-1.68,24.84-5.66,35.93-11.83c22.03-12.26,43.66-25.24,65.37-38.06
	c2.51-1.48,4.52-1.97,7.41-0.95c41.98,14.81,84.72,16.9,127.84,6.17c47.47-11.82,86.88-36.57,115.64-76.52
	c29.83-41.45,40.13-87.66,28.47-137.63c-12.89-55.25-46.96-94.51-96.28-120.83c-43.97-23.47-91.13-29.82-139.96-21.48
	c-48.19,8.23-89.43,30.04-121.53,67.48c-32.34,37.71-46.63,81.37-41.47,131.02c3.53,33.95,16.83,63.91,38.59,89.94
	c10.8,12.92,13.71,26.99,10.38,42.99c-3.63,17.47-12.6,32.44-22.07,47.14C77.69,440.98,72.36,448.15,66.64,456.35z"/>
<path class="st0" d="M257.17,357.52c0-41.57,0-82.55,0-123.81c1.27-0.11,2.41-0.29,3.55-0.3c15.87-0.02,31.74-0.21,47.61,0.06
	c11.54,0.2,22.35,2.83,29.89,12.64c11.18,14.55,8,33.34-7.23,43.37c-0.84,0.56-1.64,1.18-1.77,1.27
	c4.75,3.43,10.07,6.33,14.19,10.42c13.58,13.5,9.86,48.79-20.01,54.48c-5.7,1.08-11.56,1.7-17.36,1.79
	C289.9,357.68,273.75,357.52,257.17,357.52z M273.89,299.66c0,15.05,0,29,0,42.56c14.05,0,27.69,0.62,41.25-0.19
	c11.64-0.69,18.5-9.03,18.57-20.3c0.07-11.22-6.74-19.59-18.34-20.55C301.68,300.06,287.9,300.13,273.89,299.66z M273.66,284.64
	c13.48,0,26.5,0.57,39.43-0.19c9.94-0.58,15.83-8.27,15.57-18.01c-0.27-9.99-6.17-16.95-16.13-17.54
	c-12.52-0.74-25.08-0.62-37.63-0.84c-0.38-0.01-0.76,0.36-1.24,0.6C273.66,260.76,273.66,272.83,273.66,284.64z"/>
<path class="st0" d="M131.04,274.25c-6.76-0.13-10.61-6.24-8.23-13.11c9.25-26.75,18.51-53.49,27.78-80.23
	c5.17-14.9,10.33-29.81,15.56-44.69c1.82-5.17,4.88-7.35,9.57-7c4.9,0.37,7.13,3.57,8.6,7.86c9.46,27.47,19.01,54.91,28.52,82.36
	c4.83,13.93,9.63,27.88,14.46,41.81c1.89,5.44-0.33,10.9-5.14,12.54c-5.49,1.87-10.57-0.9-12.6-6.85
	c-3.33-9.73-6.76-19.42-9.96-29.19c-0.83-2.53-2.02-3.42-4.73-3.38c-13.18,0.15-26.35,0.13-39.53,0.02
	c-2.59-0.02-3.93,0.56-4.83,3.29c-3.24,9.91-6.86,19.7-10.3,29.55C138.53,272.01,135.53,274.34,131.04,274.25z M191.54,215.32
	c-5.47-15.82-10.83-31.33-16.52-47.76c-5.71,16.53-11.04,31.97-16.49,47.76C169.73,215.32,180.4,215.32,191.54,215.32z"/>
</svg>
