<?xml version="1.0" encoding="utf-8"?>
<!-- Generator: Adobe Illustrator 23.0.3, SVG Export Plug-In . SVG Version: 6.00 Build 0)  -->
<svg version="1.1" id="Capa_1" xmlns="http://www.w3.org/2000/svg" xmlns:xlink="http://www.w3.org/1999/xlink" x="0px" y="0px"
	 viewBox="0 0 512 512" style="enable-background:new 0 0 512 512;" xml:space="preserve">
<style type="text/css">
	.st0{display:none;fill:#C7D6DB;}
	.st1{fill:#C7D6DB;}
</style>
<ellipse class="st0" cx="716.5" cy="-31.5" rx="142.5" ry="70.5"/>
<g>
	<g>
		<path class="st1" d="M233.83,104.84c-15.45-11.62-29.71-22.38-46.84-28.37c-5.55-1.94-11.17-3.69-16.77-5.52
			c-4.73-1.55-6.51-4.96-5.04-9.64c1.2-3.79,5.04-5.37,9.31-4.49c14.01,2.89,26.98,8.54,39.1,15.82
			c9.99,5.99,19.22,13.24,28.78,19.95c0.77,0.54,1.49,1.16,2.33,1.81c7.27-5.21,14.32-10.46,21.57-15.4
			c10.31-7.03,21.28-12.75,32.97-17.3c13.12-5.11,26.53-7.32,40.42-5.8c16.04,1.75,28.68,9.66,38.04,22.76
			c10,13.99,13.93,30.06,15.11,46.82c0.68,9.58,0.49,19.27,0.08,28.88c-0.3,7.13-1.73,14.2-2.3,21.33
			c-0.09,1.19,1.37,3.09,2.59,3.72c13.27,6.86,27.08,12.78,39.86,20.44c16.65,9.98,30.7,23.22,38.22,41.56
			c3.95,9.65,5.83,19.84,3.46,30.93c-3.54,16.53-12.53,29.14-24.52,40.06c-15.75,14.35-34.25,24.2-54.02,31.81
			c-5.54,2.13-5.39,2.07-4.61,8.21c2.49,19.65,3.44,39.32,0.02,58.97c-0.56,3.25-1.19,6.55-2.38,9.6c-1.01,2.59-0.58,4.13,1.27,6.17
			c14.91,16.44,8.67,43.31-13.99,49.71c-15,4.23-29.46-0.9-36.31-17.36c-7.85-18.89,2.55-35.89,19.78-41.3
			c3.56-1.12,7.66-0.67,11.51-0.63c2.28,0.02,3.31-0.42,3.91-2.94c3.89-16.31,4.71-32.7,2.2-49.28c-0.51-3.4-0.57-6.87-0.84-10.31
			c-0.21-2.66-1.73-3.11-4.04-2.56c-14.53,3.47-29.03,7.08-43.62,10.29c-7.36,1.62-14.9,2.42-22.33,3.78
			c-1.33,0.24-2.85,1.15-3.67,2.21c-13.75,17.82-28.48,34.75-45.1,49.98c-0.57,0.52-0.86,1.33-1.59,2.5
			c8.17,5.65,15.82,11.81,24.27,16.55c9.4,5.27,19.48,9.36,29.37,13.73c3.11,1.37,6.62,1.84,9.85,2.98c4.15,1.45,5.79,5.12,4.4,9.31
			c-1.2,3.61-5.45,5.46-9.37,4.6c-13.93-3.05-26.96-8.49-39.05-15.82c-9.95-6.04-19.2-13.25-28.76-19.95
			c-0.77-0.54-1.5-1.15-2.24-1.72c-7.77,5.51-15.25,11.12-23.03,16.27c-14,9.27-28.85,16.63-45.38,20.58
			c-10.17,2.43-20.4,2.84-30.38,1.15c-14.53-2.45-26.16-10.47-34.66-22.63c-6.12-8.76-9.81-18.54-12.16-28.99
			c-4.05-17.98-4.78-36-2.2-54.2c0.68-4.76,1.38-9.53,1.71-14.32c0.06-0.96-1.34-2.45-2.42-2.98c-11.19-5.5-22.8-10.25-33.63-16.4
			c-17.31-9.83-32.6-22.18-42.15-40.25c-5.23-9.89-8.2-20.59-6.85-31.76c1.33-11.01,5.55-21.15,12.26-30.17
			c12.58-16.9,29.43-28.33,47.95-37.59c7.35-3.68,14.94-6.9,22.51-10.13c2.07-0.88,2.55-1.82,2.23-4.03
			c-2.55-17.49-4.72-35.02-1.71-52.68c1.17-6.89,2.73-13.71,3.89-20.6c0.18-1.08-0.55-2.69-1.39-3.52
			c-7.98-7.97-9.93-17.87-7.75-28.25c1.98-9.45,8.04-16.7,17.11-20.46c18.41-7.64,35.57,1.45,42.01,18.97
			c4.73,12.85-3.92,31.99-16.96,36.39c-4.94,1.66-10.43,1.89-15.7,2.3c-2.43,0.19-3.5,0.55-4.16,3.19
			c-4.01,16.02-4.48,32.16-2.33,48.46c0.47,3.55,0.69,7.14,0.99,10.71c0.24,2.8,1.71,3.35,4.28,2.73
			c14.37-3.46,28.73-7.01,43.17-10.17c7.52-1.65,15.21-2.48,22.78-3.89c1.31-0.24,2.67-1.31,3.6-2.35
			c13.66-15.32,27.22-30.72,40.9-46.03C229.12,108.36,231.34,106.92,233.83,104.84z M232.7,421.08c-0.58-0.91-0.81-1.43-1.17-1.82
			c-10.93-11.67-21.82-23.38-32.9-34.9c-0.93-0.97-3.35-1.4-4.7-0.94c-7.73,2.61-15.22,2.69-22.94-0.28
			c-13.33-5.12-22.27-23.14-17.45-36.62c4.64-12.99,15.88-22.51,32.02-21.73c13,0.63,26.31,12.79,27.42,25.91
			c0.21,2.49,1.16,3.34,3.55,3.4c13.79,0.34,27.58,1.18,41.36,1.04c11.29-0.11,22.58-1.31,33.86-2.11c3.14-0.22,5.71-1.43,7.56-4.32
			c8.15-12.72,17.03-25,24.53-38.09c8.58-14.96,16.01-30.57,23.81-45.97c0.57-1.13,0.47-2.99-0.04-4.22
			c-1.45-3.54-3.33-6.9-4.94-10.38c-11.73-25.4-26.32-49.11-42.16-72.12c-2.91-4.23-6.58-5.94-11.36-6.21
			c-12.26-0.68-24.53-2.06-36.78-1.92c-18.19,0.21-36.38,1.47-54.56,2.35c-3.34,0.16-5.88,1.64-7.8,4.63
			c-8.07,12.61-16.89,24.78-24.33,37.75c-8.59,14.97-16.05,30.6-23.86,46.01c-0.57,1.13-0.53,3.07,0.05,4.22
			c6.84,13.76,14.01,27.35,20.61,41.21c1.16,2.43,1.11,6.44-0.14,8.8c-2.57,4.87-9.85,3.58-12.96-2.11
			c-5.3-9.7-10.42-19.51-15.93-29.84c-0.87,1.3-1.88,2.27-2.24,3.44c-4.83,15.71-9.59,31.45-14.32,47.19
			c-0.64,2.13-0.25,3.57,2.4,4.23c4.26,1.06,8.45,2.45,12.56,3.98c3.52,1.31,5.29,5.48,4.05,8.8c-1.68,4.49-5.03,6.18-9.27,4.79
			c-2.87-0.94-5.82-1.64-8.67-2.63c-3.06-1.06-4.84-0.3-5.14,3.08c-0.37,4.12-0.64,8.25-1.15,12.36
			c-2.54,20.69-1.54,41.09,6.85,60.4c7.01,16.12,19.13,25.81,37.49,26.46c10.81,0.38,20.84-2.11,30.87-5.99
			C203.78,442.41,218.19,432.07,232.7,421.08z M256.77,104.17c1,1.31,1.56,2.27,2.33,3c16.19,15.25,30.83,31.87,44.32,49.54
			c0.85,1.11,2.7,1.77,4.19,2.02c5.56,0.94,11.21,1.41,16.75,2.47c8.76,1.67,17.49,3.53,26.17,5.58c7.19,1.7,14.32,3.67,21.4,5.77
			c3,0.89,4.52,0.26,4.8-2.91c0.32-3.57,0.63-7.14,1.02-10.71c2.51-22.61,1.69-44.83-8.86-65.61
			c-6.95-13.69-17.84-21.95-33.67-22.93c-11.5-0.71-22.23,1.72-32.9,5.98C285.66,83.02,271.13,92.9,256.77,104.17z M124.49,262.59
			c-0.2-0.8-0.26-1.36-0.47-1.86c-1.67-3.91-3.68-7.7-5.01-11.72c-4.57-13.77-8.95-27.61-13.31-41.45c-1.03-3.27-1.51-6.7-2.52-9.98
			c-0.76-2.46-1.53-4.53-5.19-2.42c-4.83,2.78-10.32,4.38-15.32,6.9c-17.45,8.79-34.07,18.79-45.5,35.28
			c-10.77,15.54-11.66,29.96-2.67,46.11c7.65,13.75,19.49,23.51,32.84,31.24c9.7,5.61,20.26,9.72,30.03,15.22
			c4.44,2.5,5.01,0.06,5.81-2.81c2.4-8.57,4.35-17.28,7-25.76c2.75-8.77,6.07-17.36,9.24-25.99
			C121.02,270.99,122.84,266.72,124.49,262.59z M388.19,331.54c6.68-2.99,12.91-5.45,18.85-8.49c16.99-8.69,33.24-18.47,44.61-34.43
			c11.26-15.8,12.29-31.08,2.65-47.76c-7.68-13.28-19.26-22.62-32.13-30.2c-9.88-5.82-20.63-10.14-30.79-15.51
			c-3.42-1.8-4.46-0.59-5.24,2.31c-2.17,8.07-3.98,16.25-6.54,24.19c-3.57,11.07-7.76,21.95-11.55,32.95
			c-1.09,3.15-3.19,6.91-2.34,9.61c3.11,9.91,7.67,19.36,10.94,29.23c3.52,10.64,6.19,21.57,9.3,32.35
			C386.48,327.7,387.38,329.51,388.19,331.54z M356.68,283.02c-12.95,22.44-25.58,44.32-38.35,66.44c0.83,0.04,1.39,0.19,1.88,0.07
			c16.79-4,33.56-8.05,50.35-12.01c2.8-0.66,2.64-2.53,2.08-4.45c-4.01-13.68-8.03-27.36-12.2-40.98
			C359.47,288.91,357.89,285.91,356.68,283.02z M171.31,175.49c-1.66,0.27-2.85,0.41-4,0.66c-1.34,0.3-2.66,0.73-4,1.05
			c-14.77,3.51-29.53,7.05-44.32,10.47c-2.46,0.57-2.7,2.07-2.25,3.99c0.74,3.2,1.51,6.41,2.47,9.56
			c3.18,10.48,6.36,20.97,9.71,31.4c1.07,3.32,2.68,6.46,3.92,9.39C145.79,219.62,158.36,197.87,171.31,175.49z M206.58,155.46
			c0.19,0.48,0.39,0.95,0.58,1.43c25.14-3.08,50.3-2.64,75.58-0.71c-0.42-1.63-0.9-2.61-1.6-3.37
			c-10.87-11.7-21.81-23.34-32.64-35.09c-2.73-2.97-4.89-2.64-7.48,0.15c-10.77,11.61-21.65,23.12-32.45,34.7
			C207.78,153.42,207.24,154.49,206.58,155.46z M356.52,241.8c0.53-0.89,1.53-2.03,1.93-3.35c4.76-15.43,9.47-30.87,14.01-46.36
			c0.34-1.17-0.43-3.7-1.27-4.01c-4.74-1.74-9.63-3.13-14.53-4.37c-7.55-1.91-15.14-3.71-22.76-5.34
			c-5.12-1.1-10.32-1.84-15.67-2.78C331.11,197.85,343.67,219.59,356.52,241.8z M283.53,368.78c-2.17,0-3.21-0.05-4.24,0.01
			c-10.45,0.57-20.91,1.61-31.36,1.63c-11.28,0.02-22.56-0.99-33.85-1.36c-1.58-0.05-3.49,0.62-4.67,1.64
			c-0.52,0.45-0.05,3.01,0.76,3.89c10.27,11.12,20.69,22.09,31.04,33.14c2.16,2.31,4.03,2.85,6.5,0.2
			c11.07-11.88,22.27-23.65,33.39-35.48C281.81,371.67,282.27,370.68,283.53,368.78z M182.88,339.71
			c-8.83,0.02-14.7,6.5-15.37,15.29c-0.56,7.38,7.74,15.8,15.71,15.79c7.34-0.01,15.99-8.55,15.43-15.7
			C197.94,346.06,192.03,339.68,182.88,339.71z M121.3,62.22c-8.89,0.02-14.76,6.45-15.45,15.21c-0.6,7.67,7.98,16.31,15.64,15.73
			c8.76-0.67,15.34-6.68,15.34-15.46C136.82,68.59,130.42,62.21,121.3,62.22z M368.12,432.21c-9-0.01-14.93,6.3-15.61,15.03
			c-0.64,8.19,8.18,16.42,15.45,15.91c8.77-0.62,15.01-6.71,15.66-15.28C384.18,440.43,376.05,430.86,368.12,432.21z"/>
	</g>
</g>
</svg>
