<?xml version="1.0" encoding="utf-8"?>
<!-- Generator: Adobe Illustrator 23.0.3, SVG Export Plug-In . SVG Version: 6.00 Build 0)  -->
<svg version="1.1" id="Capa_1" xmlns="http://www.w3.org/2000/svg" xmlns:xlink="http://www.w3.org/1999/xlink" x="0px" y="0px"
	 viewBox="0 0 512 512" style="enable-background:new 0 0 512 512;" xml:space="preserve">
<style type="text/css">
	.st0{fill:#D2D2D2;}
	.st1{fill:#C0C0C0;}
</style>
<path class="st0" d="M255.99,429.79c-48.3,0-96.6,0-144.9,0.01c-5.19,0-10.35-0.66-14.97-2.91c-7.8-3.81-13.83-9.55-17.26-17.8
	c-2.17-5.24-3.1-10.6-3.09-16.23c0.03-86.1,0.01-172.21,0.03-258.31c0-11.57,4.19-21.28,13.32-28.61
	c6.13-4.92,13.22-7.21,21.04-7.24c10.2-0.04,20.39,0.01,30.59-0.05c2.24-0.01,2.57,1.25,2.57,3.01c-0.02,7.81-0.05,15.63-0.02,23.44
	c0.03,9.91,3.85,18.15,11.71,24.14c8.52,6.49,18.27,8.3,28.17,4.2c11.83-4.89,18.61-14.01,18.9-27.18
	c0.18-8.11,0.05-16.22,0.01-24.33c-0.01-2.74,0.43-3.25,3.21-3.25c33.79,0,67.57,0,101.36,0c2.75,0,3.28,0.53,3.28,3.24
	c0,7.81,0.03,15.63-0.03,23.44c-0.07,9.72,3.58,17.71,11.26,23.64c7.38,5.71,15.65,7.89,24.92,5.48
	c9.75-2.53,16.54-8.55,20.37-17.67c1.38-3.28,2.03-7.04,2.16-10.62c0.31-8.1,0.09-16.22,0.08-24.33c-0.01-2.81,0.38-3.19,3.21-3.18
	c8.93,0.01,17.86-0.03,26.79,0.04c3.04,0.02,6.12,0.07,9.12,0.54c8.69,1.36,15.64,5.82,20.99,12.7c5.26,6.75,7.41,14.54,7.4,23.06
	c-0.03,86.48,0.01,172.96-0.04,259.43c-0.01,13.08-5.69,23.34-16.62,30.48c-5.6,3.66-12.03,4.89-18.68,4.89
	C352.59,429.79,304.29,429.79,255.99,429.79z M256.08,195.97c-49.93,0-99.86,0-149.8,0c-3.02,0-3.17,0.16-3.17,2.88
	c0,61.76,0.08,123.53-0.07,185.29c-0.03,10.67,8.12,18.89,19.05,18.88c73.89-0.02,147.79-0.02,221.68-0.02
	c15.48,0,30.96,0.11,46.43-0.09c3.03-0.04,6.36-0.66,9-2.06c6.74-3.57,9.72-9.47,9.71-17.22c-0.09-61.39-0.05-122.78-0.04-184.17
	c0-3.48-0.01-3.5-3.44-3.5C355.65,195.97,305.86,195.97,256.08,195.97z"/>
<path class="st1" d="M159.38,105.02c0-7.06,0-14.13,0-21.19c0-5.25,3.95-9.94,8.64-12.1c6.04-2.77,13.45,0.66,16.44,6
	c1.21,2.17,1.8,4.95,1.83,7.47c0.17,13.16,0.12,26.32,0.06,39.48c-0.04,7.39-4.06,12.48-11.17,14.49c-4.52,1.28-11.94-2.29-14-6.6
	c-1.31-2.74-1.92-5.52-1.84-8.59C159.5,117.67,159.39,111.34,159.38,105.02C159.39,105.02,159.39,105.02,159.38,105.02z"/>
<path class="st1" d="M352.61,105.11c0,6.99,0,13.99,0,20.98c0,5.44-3.41,10.24-8.58,12.06c-6.63,2.34-12.81,0.35-16.41-5.74
	c-1.15-1.95-1.75-4.52-1.78-6.81c-0.16-13.69-0.22-27.38-0.04-41.07c0.1-8.02,5.26-13.22,12.79-13.69
	c6.98-0.44,13.56,4.41,13.95,12.62C352.88,90.66,352.61,97.89,352.61,105.11z"/>
<path class="st1" d="M158.75,230.92c6.09,0,12.19,0.05,18.28-0.03c1.77-0.02,2.46,0.72,2.47,2.34c0.02,8.84,0.03,17.69,0.04,26.53
	c0,1.79-1.2,1.94-2.59,1.94c-5.65-0.02-11.3-0.01-16.95-0.01c-6.47,0-12.93-0.05-19.4,0.02c-2.11,0.02-2.81-0.75-2.78-2.92
	c0.13-8.17,0.05-16.35,0.06-24.53c0.01-3.15,0.18-3.32,3.24-3.32c5.87-0.01,11.74,0,17.62,0
	C158.75,230.94,158.75,230.93,158.75,230.92z"/>
<path class="st1" d="M353.3,261.7c-6.02,0-12.04-0.06-18.06,0.03c-2.13,0.03-2.86-0.72-2.83-2.87c0.1-7.95,0.05-15.9,0.04-23.86
	c0-3.93,0.13-4.07,4.15-4.07c11.22,0,22.44,0,33.67,0c3.87,0,3.87,0.06,3.86,4.05c-0.03,8.03-0.05,16.05,0.06,24.08
	c0.03,2.02-0.75,2.64-2.6,2.63c-6.09-0.04-12.19-0.01-18.28-0.01C353.3,261.69,353.3,261.7,353.3,261.7z"/>
<path class="st1" d="M223.29,261.7c-5.88,0-11.75,0.01-17.63,0c-2.51-0.01-2.75-0.36-2.74-2.87c0.03-8.11,0.03-16.21,0.01-24.32
	c-0.01-3.32,0.25-3.58,3.46-3.57c11.45,0.02,22.91,0.01,34.36-0.01c2.97-0.01,3.38,0.33,3.39,3.28c0.02,8.26-0.04,16.51,0.05,24.77
	c0.02,2.13-0.95,2.74-2.83,2.74C235.34,261.68,229.31,261.69,223.29,261.7z"/>
<path class="st1" d="M288.52,261.7c-5.87,0-11.75,0.02-17.62-0.01c-2.73-0.01-2.99-0.38-2.98-3.12c0.02-8.11,0-16.21-0.04-24.32
	c-0.02-2.93,0.37-3.33,3.31-3.33c11.68,0.02,23.35,0.05,35.03-0.04c2.07-0.02,2.86,0.73,2.86,2.68c0.01,8.7,0.04,17.4,0.06,26.1
	c0,1.73-1.1,2.05-2.53,2.04C300.57,261.69,294.55,261.7,288.52,261.7z"/>
<path class="st1" d="M158.76,314.45c-6.03,0-12.05,0.01-18.08-0.01c-2.65-0.01-2.82-0.29-2.81-3c0.03-7.96,0.02-15.92-0.01-23.88
	c-0.01-3.17,0.27-3.56,3.32-3.56c11.98-0.02,23.96,0.02,35.94-0.06c2.4-0.02,2.41,1.49,2.41,3.1c0.01,7.14,0.01,14.29-0.01,21.43
	c-0.03,6.95,0.95,5.96-6.02,5.99C168.59,314.47,163.67,314.45,158.76,314.45z"/>
<path class="st1" d="M353.56,283.98c5.95,0,11.9,0.06,17.85-0.03c2.07-0.03,2.76,0.83,2.76,2.78c-0.02,8.55,0,17.1,0.05,25.65
	c0.01,1.98-1.24,2.07-2.68,2.07c-7.29,0-14.58,0-21.86,0c-4.83,0-9.67-0.06-14.5,0.05c-2,0.04-2.79-0.57-2.76-2.67
	c0.09-8.18,0.03-16.36,0.04-24.54c0-3.04,0.33-3.33,3.26-3.32C341.66,284,347.61,283.99,353.56,283.98z"/>
<path class="st1" d="M158.64,367.37c-5.8,0-11.61,0-17.41-0.01c-3.32-0.01-3.36-0.12-3.34-3.37c0.03-7.89,0.02-15.77-0.02-23.66
	c-0.01-2.98,0.29-3.35,3.28-3.35c11.98-0.02,23.96,0.02,35.94-0.06c2.37-0.01,2.45,1.43,2.45,3.08c0.01,6.62-0.01,13.24-0.01,19.87
	c0,1.64-0.06,3.28,0.04,4.91c0.11,1.93-0.7,2.65-2.62,2.63C170.84,367.33,164.74,367.38,158.64,367.37z"/>
<path class="st1" d="M353.19,367.38c-6.02,0-12.04-0.05-18.06,0.03c-2.05,0.03-2.74-0.74-2.72-2.76c0.08-8.1,0.04-16.2,0.04-24.3
	c0-3.12,0.29-3.37,3.44-3.37c11.59,0.01,23.19,0,34.78,0.01c3.23,0,3.46,0.32,3.46,3.62c-0.01,8.1-0.02,16.2,0.09,24.3
	c0.03,1.93-0.79,2.48-2.52,2.47c-6.17-0.03-12.34-0.01-18.51-0.01C353.19,367.37,353.19,367.37,353.19,367.38z"/>
<path class="st1" d="M223.59,283.95c5.88,0,11.75,0.05,17.63-0.03c2.1-0.03,2.96,0.81,2.95,2.9c-0.03,8.48,0,16.96,0.05,25.44
	c0.01,1.43-0.67,2.04-1.98,2.14c-0.67,0.05-1.34,0.05-2.01,0.05c-11.6,0.02-23.21,0.01-34.81,0.06c-1.75,0.01-2.56-0.5-2.54-2.43
	c0.09-8.18,0.07-16.36,0.06-24.54c-0.01-3.29,0.28-3.58,3.47-3.56c5.73,0.03,11.45,0.01,17.18,0.01
	C223.59,283.98,223.59,283.96,223.59,283.95z"/>
<path class="st1" d="M288.52,314.45c-5.87,0-11.74,0.02-17.62-0.01c-2.75-0.01-3-0.37-2.99-3.1c0.02-7.95,0.02-15.91-0.02-23.86
	c-0.02-3.12,0.37-3.52,3.59-3.51c11.59,0.02,23.19,0.05,34.78-0.04c1.94-0.02,2.79,0.66,2.8,2.51c0.03,8.7,0.05,17.39,0.07,26.09
	c0,1.75-1.11,2-2.55,1.99c-6.02-0.03-12.04-0.01-18.06-0.01C288.52,314.48,288.52,314.46,288.52,314.45z"/>
<path class="st1" d="M288.83,336.91c5.94,0,11.89,0.06,17.83-0.03c2.38-0.04,2.41,1.49,2.42,3.11c0.01,6.47-0.01,12.93-0.01,19.4
	c0,1.86,0,3.72,0.07,5.57c0.05,1.55-0.54,2.41-2.17,2.41c-12.26-0.01-24.53,0-36.79-0.02c-1.62,0-2.33-0.78-2.32-2.52
	c0.07-8.32,0.03-16.65,0.02-24.97c0-2.28,0.62-2.93,2.89-2.93c6.02,0,12.04,0,18.06,0C288.83,336.93,288.83,336.92,288.83,336.91z"
	/>
<path class="st1" d="M223.17,336.93c6.02,0,12.05,0.03,18.07-0.02c1.79-0.01,2.89,0.6,2.9,2.52c0.03,8.62,0.09,17.25,0,25.87
	c-0.01,0.66-0.96,1.47-1.66,1.92c-0.49,0.31-1.3,0.14-1.97,0.14c-11.53,0.01-23.05,0.01-34.58,0.01c-2.79,0-3-0.3-2.99-3.07
	c0.04-8.03,0.02-16.06,0-24.09c-0.01-2.98,0.34-3.28,3.28-3.26c5.65,0.05,11.3,0.01,16.95,0.01
	C223.17,336.96,223.17,336.95,223.17,336.93z"/>
</svg>
