<?xml version="1.0" encoding="utf-8"?>
<!-- Generator: Adobe Illustrator 23.0.3, SVG Export Plug-In . SVG Version: 6.00 Build 0)  -->
<svg version="1.1" id="Capa_1" xmlns="http://www.w3.org/2000/svg" xmlns:xlink="http://www.w3.org/1999/xlink" x="0px" y="0px"
	 viewBox="0 0 512 512" style="enable-background:new 0 0 512 512;" xml:space="preserve">
<style type="text/css">
	.st0{fill:#B4B4B4;}
</style>
<path class="st0" d="M281.01,252.25c2.02,1.87,4.1,3.69,6.06,5.64c42.43,42.45,84.86,84.91,127.26,127.39
	c10.91,10.93,11.16,27.88,0.63,38.5c-10.7,10.79-27.6,10.69-38.67-0.38c-43.46-43.45-86.9-86.93-130.26-130.49
	c-2.32-2.33-3.76-2.5-6.58-0.77c-74.8,45.87-173.96,3.28-192.55-82.62C31.55,138.59,76.42,69.68,147.51,55
	C217.3,40.59,287.1,87.74,299.67,157.91c5.84,32.6,0.18,63.15-17.03,91.51C282.17,250.2,281.74,251,281.01,252.25z M268.29,181.49
	c0.05-52.43-42.87-95.26-95.52-95.32c-52.27-0.06-95.14,42.75-95.35,95.22c-0.21,52.6,42.75,95.74,95.4,95.81
	C225.42,277.26,268.24,234.33,268.29,181.49z"/>
<path class="st0" d="M176.15,98.36c44.06,1.64,79.37,37.87,79.95,82.11c0.11,8.45-5.44,14.58-13.27,14.68
	c-7.64,0.1-13.31-5.81-13.57-14.12c-0.96-31.38-24.6-54.96-55.96-55.83c-8.05-0.22-13.92-5.92-13.9-13.47
	c0.03-7.72,6.05-13.35,14.28-13.36C174.51,98.36,175.33,98.36,176.15,98.36z"/>
</svg>
