<?xml version="1.0" encoding="utf-8"?>
<!-- Generator: Adobe Illustrator 23.0.3, SVG Export Plug-In . SVG Version: 6.00 Build 0)  -->
<svg version="1.1" id="Capa_1" xmlns="http://www.w3.org/2000/svg" xmlns:xlink="http://www.w3.org/1999/xlink" x="0px" y="0px"
	 viewBox="0 0 512 512" style="enable-background:new 0 0 512 512;" xml:space="preserve">
<style type="text/css">
	.st0{fill:#D2D2D2;}
</style>
<path class="st0" d="M246.96,502.21c-31.68,0-63.36,0.31-95.03-0.14c-14.24-0.2-27.54-4.72-37.67-15.23
	c-10.05-10.43-13.79-23.11-12.06-37.78c2.06-17.38,11.38-31.71,18.6-46.86c24.31-51.05,49.16-101.85,73.74-152.77
	c0.73-1.52,1.02-3.39,1.02-5.1c0.09-45.23,0.16-90.46,0.14-135.7c0-9.29,4.68-15.55,14.97-15.34c25.3,0.53,50.62,0.16,75.93,0.18
	c8.01,0,12.88,4.9,12.9,12.97c0.1,32.33,0.11,64.66,0.29,96.99c0.08,14.2,0.43,28.39,0.75,42.59c0.03,1.55,0.43,3.21,1.1,4.6
	c20.29,42.12,40.66,84.2,60.96,126.31c9.02,18.71,18.66,37.17,26.71,56.3c6.78,16.12,7.1,32.73-3.5,47.99
	c-8.49,12.21-20.77,18.19-35.12,19.89c-8.21,0.98-16.56,1.01-24.85,1.05C299.54,502.29,273.25,502.21,246.96,502.21z M220.2,117.76
	c0,2.11,0.01,3.88,0,5.65c-0.15,40.34-0.15,80.68-0.62,121.02c-0.06,5.5-1.48,11.43-3.86,16.4
	c-28.16,58.89-56.66,117.62-84.94,176.46c-2.02,4.21-3.57,8.83-4.35,13.43c-2.17,12.82,3.93,22.1,16.53,25.41
	c4.06,1.07,8.36,1.72,12.55,1.72c61.41,0.11,122.83,0.12,184.24-0.02c4.83-0.01,9.81-0.81,14.44-2.2
	c10.97-3.31,16.61-11.81,15.05-23.16c-0.74-5.39-2.49-10.86-4.85-15.78c-28.46-59.29-57.17-118.46-85.63-177.75
	c-1.76-3.67-2.74-8.08-2.78-12.16c-0.37-35.11-0.46-70.23-0.61-105.35c-0.03-7.81-0.01-15.61-0.01-23.66
	C256.66,117.76,238.62,117.76,220.2,117.76z"/>
<path class="st0" d="M29.61,81.75c-7.63,0.65-13.01-3.68-13.36-10c-0.35-6.24,4.17-11.51,10.55-12.32
	c6.99-0.88,13.8,6.46,12.58,13.36c-0.24,1.38,0.03,3.38,0.9,4.33c4.15,4.54,8.46,8.95,13,13.1c1.18,1.08,3.69,1.85,5.1,1.37
	c12.13-4.21,21.96,0.5,27.52,9.85c0.54,0.91,2.53,1.81,3.49,1.52c17.81-5.44,35.58-11.02,53.31-16.73c1.21-0.39,2.7-1.91,2.89-3.09
	c0.91-5.7,4.47-9.06,9.58-10.37c5.08-1.3,9.49,0.59,12.86,4.84c3.42,4.31,3.53,12-0.96,15.95c-3.25,2.86-3.22,5.62-2.64,9.24
	c0.71,4.4,1.5,7.87,6.78,9.55c5.27,1.67,7.95,6.49,7.8,12.19c-0.07,2.78,0.87,4.06,3.46,4.83c11.54,3.45,23,7.21,34.61,10.41
	c2.15,0.59,5.01-0.51,7.28-1.45c4.86-2.01,8.6-0.81,10.69,3.91c1.88,4.23,0.11,7.84-4.53,9.97c-3.8,1.75-5.91-0.6-8.5-2.66
	c-2.64-2.1-5.49-4.32-8.62-5.37c-10.98-3.65-22.07-7-33.23-10.02c-2.2-0.6-4.94,0.75-7.42,1.26c-3.29,0.68-6.56,1.91-9.86,2
	c-2.95,0.08-5.28-0.15-7.77,2.34c-7.18,7.18-14.76,13.97-22.35,20.73c-2.52,2.25-3.19,4.57-2.37,7.74
	c1.54,5.99-1.05,11.23-6.88,14.38c-4.32,2.34-9.36,1.33-13.35-2.67c-4.48-4.5-5.07-9.1-1.87-14.79c2.64-4.7,7.99-7.14,13.49-5.29
	c2.87,0.96,4.26,0.27,6.23-1.6c7.61-7.25,15.41-14.29,23.19-21.37c2.16-1.97,2.92-3.93,1.65-6.88c-2.92-6.82-1.24-13.13,4.8-16.87
	c2.68-1.65,3.09-3.31,2.43-5.95c-0.42-1.71-0.49-3.51-0.87-5.24c-0.57-2.61-2.22-3.75-4.71-5.12c-10.37-5.7-18.86,1.3-27.9,3.58
	c-11.68,2.95-23.07,7.05-34.62,10.51c-2.56,0.77-3.9,1.86-4.53,4.7c-1.78,8.04-6.85,13.2-14.74,15.86c-1.74,0.59-3.77,2.64-4.2,4.38
	c-3.79,15.46-7.26,31.01-10.79,46.53c-0.78,3.45,0,6.15,3.11,8.45c6.53,4.83,9.71,14.3,4.72,22.69c-4.76,8-13.99,11.41-22.16,7.91
	c-7.98-3.42-11.62-9.2-11.47-18.2c0.11-6.49,5.18-13.46,12.4-15.73c3.53-1.11,4.67-3.02,5.38-6.26
	c3.36-15.23,6.89-30.42,10.38-45.63c0.6-2.61,0.39-4.16-2.67-5.61c-10.63-5.07-14.81-17.29-9.63-27.93c1.6-3.29,0.74-5.43-1.31-7.57
	c-3.49-3.65-6.97-7.36-10.82-10.62C34.14,82.6,31.66,82.43,29.61,81.75z"/>
<path class="st0" d="M407.35,234.06c-10.15-17.5-20.11-34.66-30.26-52.16c-2.27-0.14-5.16,0.18-7.72-0.58
	c-6.59-1.96-10.22-9.72-8.06-16.37c2-6.17,9.56-9.77,16.09-7.66c6.62,2.13,9.99,9.12,7.54,16.02c-0.98,2.77-0.74,4.85,0.85,7.54
	c9.26,15.63,18.24,31.42,27.17,47.24c1.45,2.57,2.98,3.76,6.04,3.65c8.23-0.29,13.9,3.97,18.28,10.62c0.94,1.43,3.08,2.9,4.69,2.92
	c16.65,0.21,33.3,0.11,49.96,0.16c2.5,0.01,3.88-0.43,4.89-3.3c2.91-8.24,12.79-13.25,21.21-11.38c7.84,1.75,14.32,10.55,13.85,18.8
	c-0.48,8.32-7.99,16.68-16.33,17.31c-7.09,0.54-13.22-2.35-16.92-8.46c-2.09-3.46-4.38-4.27-8.07-4.24
	c-16.8,0.16-33.6,0.07-50.34,0.07c-3.48,15.69-15.98,22.91-30.25,18.02c-3.87,5.69-7.95,11.28-11.51,17.19
	c-0.85,1.42-0.49,4.05,0.16,5.81c2.34,6.41-0.24,12.04-7.27,15.04c-4.59,1.96-11.53-0.83-13.49-5.42c-2.9-6.8-1.12-14.58,5.02-15.62
	c9.04-1.53,11.53-8.51,15.56-14.54c1.52-2.27,3.13-4.47,4.87-6.94C394.16,255.49,395.36,244.03,407.35,234.06z"/>
<path class="st0" d="M86.67,366.02c4.84,6.21,6.89,12.43,3.12,19.59c-3.16,6-10.54,9.87-16.98,8.7
	c-6.74-1.23-13.18-7.98-13.34-14.72c-0.09-3.61-1.29-4.42-4.77-4.94c-11.61-1.74-23.15-3.95-34.65-6.3
	c-3.71-0.76-6.52-0.83-9.27,2.41c-2.78,3.29-9.1,2.94-12.23-0.05c-3.69-3.52-4.08-9.36-0.88-13.16c3.2-3.81,9.98-5.41,12.39-1.73
	c5.7,8.71,14.93,6.96,22.74,8.96c8.56,2.18,17.47,3.01,26.25,4.27c1.14,0.16,2.78-0.22,3.56-0.98c4.93-4.9,10.46-7.34,17.51-5.44
	c0.91,0.24,2.52-0.48,3.2-1.27c8.34-9.66,16.63-19.36,24.72-29.23c0.78-0.95,0.61-3.29,0.03-4.62c-2.71-6.19-2.41-11.29,2.16-15.51
	c4.97-4.59,8.43-6.14,14.24-3.67c5.49,2.34,9.19,6.82,9.15,12.65c-0.05,7.34-7.34,15.45-16,13.31c-3.19-0.79-4.52,0.11-6.37,2.44
	c-5.73,7.21-11.82,14.14-17.77,21.18C91.3,360.48,89.14,363.08,86.67,366.02z"/>
<path class="st0" d="M424.18,371.37c-7.99-3.42-15.79-6.76-23.59-10.1c-3.84-1.65-7.69-3.27-11.5-4.99
	c-3.96-1.79-7.47-3.22-11.89-0.08c-4.1,2.91-9.8,0.42-12.17-4.24c-2.22-4.37-0.52-9.95,3.85-12.68c3.64-2.27,11.27-0.77,12.55,3.54
	c1.7,5.71,6.21,7.06,10.41,8.89c10.61,4.62,21.36,8.93,32.15,13.09c1.64,0.63,4.31,0.53,5.66-0.42c4.96-3.48,10.22-4.39,15.52-1.91
	c2.98,1.4,4.89,0.57,6.96-0.99c8.82-6.63,17.47-13.48,26.43-19.9c3.16-2.27,3.39-4.97,3.18-8.22c-0.41-6.29,1.29-11.27,7.68-14.08
	c6.16-2.7,13.01-1.12,16.46,4.41c4.05,6.48,3.14,14.14-2.47,18.19c-4,2.89-8.21,4.63-13.38,1.91c-1.63-0.86-4.9-0.36-6.5,0.8
	c-9.82,7.07-19.44,14.43-28.94,21.94c-0.86,0.68-0.97,3.24-0.45,4.55c2.61,6.66,1.23,12.65-3.47,17.48
	c-4.73,4.85-10.82,6.22-17.43,3.86C427.02,390.2,420.53,381.51,424.18,371.37z"/>
<path class="st0" d="M490.13,417.92c-6.82-0.05-12.21-5.48-12.24-12.33c-0.03-7.32,5.73-13.04,12.88-12.8
	c6.39,0.22,12.72,6.19,12.45,12.52C502.94,412.09,497.93,418.35,490.13,417.92z"/>
<path class="st0" d="M211.33,339.38c-11.87,25.55-23.45,50.46-35.51,76.42c4.62,0,8.35,0.32,11.95-0.18
	c1.21-0.17,2.48-2.27,3.15-3.74c10.27-22.75,20.51-45.52,30.58-68.36c1.39-3.14,3.05-4.25,6.52-4.22
	c22.21,0.17,44.43,0.15,66.65,0.02c3.04-0.02,4.58,0.91,5.91,3.7c13.68,28.73,27.61,57.34,41.27,86.08
	c9.03,19.01,1.02,31.76-20,31.8c-49.33,0.1-98.67,0.11-148,0c-21.14-0.05-29.24-12.6-20.21-31.65
	c13.76-29.06,27.89-57.94,42.03-86.81c0.7-1.43,2.97-2.69,4.66-2.92C203.67,339.06,207.12,339.38,211.33,339.38z M241.12,422.47
	c0.01-6.98-5.73-12.7-12.8-12.73c-6.95-0.03-12.79,5.85-12.71,12.82c0.07,7.03,5.91,12.86,12.81,12.78
	C235.44,435.28,241.1,429.54,241.12,422.47z M287.06,397.86c7.11,0.03,12.75-5.53,12.78-12.59c0.03-7.16-5.4-12.69-12.55-12.79
	c-7.05-0.09-12.75,5.49-12.82,12.54C274.4,392.02,280.11,397.84,287.06,397.86z M291.62,426.63c-4.94,0.13-8.93,4.21-8.9,9.11
	c0.03,5.1,4.31,9.11,9.5,8.9c5.01-0.2,8.79-4.25,8.63-9.26C300.68,430.46,296.51,426.5,291.62,426.63z"/>
<path class="st0" d="M287.56,312.23c-0.06,6.49-5.83,12.13-12.35,12.07c-6.8-0.07-12.42-5.84-12.33-12.65
	c0.09-6.46,5.86-12.07,12.41-12.06C282.09,299.6,287.62,305.3,287.56,312.23z"/>
<path class="st0" d="M253.57,255.32c-0.05,5.78-5.79,11.88-11.4,11.59c-6.9-0.37-11.64-6.03-11.43-12.46
	c0.21-6.37,5.14-11.14,11.59-11.09C248.46,243.41,253.63,248.91,253.57,255.32z"/>
<path class="st0" d="M242.46,300.38c-3.55,0-6.62-3.05-6.42-6.59c0.22-3.79,2.34-6.02,6.15-6.3c3.58-0.26,6.64,2.72,6.7,6.26
	C248.96,297.31,245.99,300.38,242.46,300.38z"/>
</svg>
