<?xml version="1.0" encoding="utf-8"?>
<!-- Generator: Adobe Illustrator 16.0.0, SVG Export Plug-In . SVG Version: 6.00 Build 0)  -->
<!DOCTYPE svg PUBLIC "-//W3C//DTD SVG 1.1//EN" "http://www.w3.org/Graphics/SVG/1.1/DTD/svg11.dtd">
<svg version="1.1" id="Layer_1" xmlns="http://www.w3.org/2000/svg" xmlns:xlink="http://www.w3.org/1999/xlink" x="0px" y="0px"
	 width="512px" height="512px" viewBox="0 0 512 512" enable-background="new 0 0 512 512" xml:space="preserve">
<g>
	<g>
		<g>
			<path fill="#A2256E" d="M360.465,443.988c-4.574-1.161-9.207,1.638-10.342,6.204l-8.533,34.133
				c-1.152,4.582,1.639,9.207,6.212,10.351c0.691,0.18,1.392,0.256,2.074,0.256c3.823,0,7.296-2.586,8.269-6.46l8.533-34.133
				C367.82,449.765,365.039,445.132,360.465,443.988z"/>
			<path fill="#A2256E" d="M256,273.066c1.109,0,2.219-0.213,3.26-0.648l93.867-38.844c4.352-1.801,6.417-6.793,4.617-11.145
				c-1.801-4.361-6.811-6.409-11.153-4.625L256,255.299L17.067,156.432v-2.833c0-4.71-3.823-8.533-8.533-8.533S0,148.889,0,153.599
				v8.533c0,3.456,2.082,6.571,5.274,7.885l247.467,102.4C253.781,272.852,254.891,273.066,256,273.066z"/>
			<path fill="#A2256E" d="M357.514,360.49c-2.082-4.225-7.186-5.965-11.427-3.874c-16.205,8.013-43.272,17.331-81.553,18.603
				v-76.553c0-4.71-3.823-8.533-8.533-8.533s-8.533,3.823-8.533,8.533v76.476c-105.958-3.379-140.151-67.566-145.067-78.251v-57.958
				c0-4.71-3.823-8.533-8.533-8.533s-8.533,3.823-8.533,8.533v59.733c0,1.084,0.205,2.159,0.606,3.174
				c1.485,3.695,37.803,90.692,170.061,90.692c46.225,0,78.618-11.213,97.646-20.617
				C357.879,369.825,359.611,364.714,357.514,360.49z"/>
			<path fill="#A2256E" d="M384,452.266c-4.719,0-8.533,3.823-8.533,8.533v25.601c0,4.71,3.814,8.532,8.533,8.532
				s8.533-3.822,8.533-8.532v-25.601C392.533,456.089,388.719,452.266,384,452.266z"/>
			<path fill="#A2256E" d="M503.467,145.066c-4.719,0-8.533,3.823-8.533,8.533v2.816l-102.399,42.146v-15.42l114.192-47.258
				c3.191-1.314,5.274-4.429,5.274-7.885s-2.082-6.562-5.265-7.885L259.26,17.714c-2.091-0.862-4.429-0.862-6.519,0L5.274,120.114
				C2.082,121.437,0,124.543,0,127.999s2.082,6.571,5.274,7.885l247.467,102.4c1.041,0.435,2.15,0.649,3.26,0.649
				c1.11,0,2.22-0.213,3.261-0.649l89.48-37.026c4.361-1.792,6.426-6.784,4.625-11.145c-1.801-4.352-6.793-6.409-11.145-4.617
				L256,221.166L30.848,127.999L256,34.832l225.152,93.167l-97.971,40.542l-93.842-35.038c0.495-1.775,0.794-3.601,0.794-5.504
				c0-14.353-14.993-25.6-34.133-25.6c-19.14,0-34.133,11.247-34.133,25.6s14.993,25.6,34.133,25.6
				c8.542,0,16.162-2.33,22.084-6.084l97.382,36.361v27.341v0.009v182.877c-9.906,3.541-17.066,12.92-17.066,24.03
				c0,14.114,11.485,25.601,25.6,25.601s25.6-11.486,25.6-25.601c0-11.109-7.158-20.487-17.066-24.03v-48.435
				c24.499-18.492,33.28-43.119,33.664-44.211c0.307-0.896,0.469-1.843,0.469-2.79v-59.733c0-4.71-3.814-8.533-8.533-8.533
				s-8.533,3.823-8.533,8.533v58.155c-1.476,3.618-6.604,14.771-17.066,25.779v-105.85l114.185-46.993
				c3.2-1.314,5.282-4.437,5.282-7.893V153.6C512,148.889,508.186,145.066,503.467,145.066z M256,136.532
				c-10.419,0-17.067-5.052-17.067-8.533c0-3.482,6.647-8.533,17.067-8.533s17.066,5.052,17.066,8.533
				C273.066,131.481,266.419,136.532,256,136.532z M384,426.666c-4.71,0-8.533-3.831-8.533-8.533S379.29,409.6,384,409.6
				s8.533,3.831,8.533,8.533C392.533,422.834,388.71,426.666,384,426.666z"/>
			<path fill="#A2256E" d="M417.877,450.192c-1.143-4.565-5.786-7.356-10.342-6.204c-4.574,1.143-7.356,5.776-6.212,10.351
				l8.533,34.133c0.973,3.874,4.445,6.46,8.269,6.46c0.683,0,1.382-0.076,2.074-0.256c4.574-1.143,7.355-5.769,6.212-10.351
				L417.877,450.192z"/>
		</g>
	</g>
</g>
</svg>
